<svg width="80" viewBox="0 0 30 30" fill="none" xmlns="http://www.w3.org/2000/svg">
<path d="M21.8195 0H19.9995H7.26953V12.73H9.08953V1.82H19.9995V9.09H27.2695V27.27H23.6395H9.08953H7.26953V29.09H29.0895V9.09V7.27L21.8195 0Z" fill="#545E6B"/>
<path d="M0 14.55V25.46H25.45V14.55H0ZM7.76 23.27C8.35 23.27 8.95 23.15 9.33 22.96L9.52 23.73C9.18 23.91 8.46 24.08 7.56 24.08C5.47 24.08 3.91 22.76 3.91 20.32C3.91 17.88 5.48 16.43 7.78 16.43C8.69 16.43 9.29 16.63 9.54 16.76L9.3 17.54C8.95 17.36 8.43 17.23 7.81 17.23C6.07 17.23 4.92 18.34 4.92 20.29C4.92 22.12 5.96 23.27 7.76 23.27ZM12.77 24.09C12.06 24.09 11.27 23.87 10.88 23.61L11.13 22.81C11.56 23.08 12.17 23.29 12.84 23.29C13.82 23.29 14.39 22.77 14.39 22.02C14.39 21.34 13.99 20.93 12.99 20.56C11.78 20.12 11.03 19.48 11.03 18.45C11.03 17.29 11.99 16.44 13.43 16.44C14.18 16.44 14.74 16.62 15.06 16.8L14.8 17.58C14.57 17.44 14.07 17.23 13.4 17.23C12.39 17.23 12 17.84 12 18.34C12 19.03 12.45 19.37 13.47 19.77C14.72 20.25 15.35 20.86 15.35 21.95C15.35 23.09 14.51 24.1 12.77 24.1V24.09ZM19.89 23.97H18.83L16.4 16.55H17.44L18.6 20.2C18.91 21.2 19.18 22.1 19.39 22.97H19.41C19.62 22.11 19.92 21.18 20.26 20.21L21.51 16.55H22.53L19.88 23.97H19.89Z" fill="#545E6B"/>
</svg>
