<?xml version="1.0" standalone="no"?>
<!DOCTYPE svg PUBLIC "-//W3C//DTD SVG 20010904//EN"
 "http://www.w3.org/TR/2001/REC-SVG-20010904/DTD/svg10.dtd">
<svg version="1.0" xmlns="http://www.w3.org/2000/svg"
 width="80" viewBox="0 0 512.000000 512.000000"
 preserveAspectRatio="xMidYMid meet">

<g transform="translate(0.000000,512.000000) scale(0.100000,-0.100000)"
fill="#545e6b" stroke="none">
<path d="M1166 5104 c-123 -30 -250 -118 -322 -224 -17 -25 -44 -76 -60 -115
l-29 -70 -3 -1067 -3 -1068 -47 0 c-68 0 -148 -42 -187 -98 l-30 -44 -3 -726
c-3 -817 -6 -781 71 -847 45 -39 90 -55 153 -55 l42 0 4 -183 c4 -167 7 -188
31 -250 50 -128 139 -229 256 -291 133 -69 38 -66 1657 -66 1425 0 1463 0
1538 20 43 11 103 34 135 52 74 42 168 139 208 214 67 126 63 5 63 1864 l0
1685 -642 642 -643 643 -1065 -1 c-883 -1 -1075 -3 -1124 -15z m2056 -706 c4
-381 5 -395 27 -451 43 -108 121 -187 226 -226 53 -20 75 -21 439 -21 l384 0
7 -1012 c3 -557 5 -1281 3 -1609 l-3 -596 -30 -48 c-21 -35 -45 -56 -80 -74
l-49 -26 -1421 -3 c-1015 -2 -1435 1 -1474 9 -40 8 -65 21 -97 51 -60 55 -74
106 -74 270 l0 128 1330 0 c1478 0 1368 -5 1443 68 68 66 67 54 67 814 0 483
-3 692 -12 725 -15 60 -87 137 -143 152 -28 8 -436 11 -1362 11 l-1323 0 0
1013 c0 862 2 1021 15 1063 19 65 77 122 142 140 38 10 257 13 1015 13 l966 1
4 -392z m-635 -2302 c143 -45 223 -180 193 -329 -20 -103 -67 -162 -169 -210
-57 -27 -78 -31 -173 -35 l-108 -5 0 -163 0 -164 -100 0 -100 0 0 454 0 455
43 5 c95 13 117 14 237 11 79 -2 144 -9 177 -19z m-1245 -191 c32 -110 67
-245 79 -300 12 -55 25 -106 28 -113 4 -7 26 59 50 150 23 90 65 232 92 316
l50 152 134 0 134 0 5 -32 c5 -34 46 -798 46 -855 l0 -33 -99 0 -99 0 -7 133
c-3 72 -9 238 -13 367 l-7 235 -24 -90 c-13 -49 -62 -211 -107 -359 -46 -148
-84 -270 -84 -273 0 -2 -37 -3 -82 -1 l-83 3 -63 229 c-34 127 -74 285 -89
353 -15 67 -28 121 -29 120 -3 -2 -34 -645 -34 -691 l0 -26 -95 0 -95 0 0 48
c0 26 11 218 25 427 14 209 25 395 25 413 l0 33 142 -3 143 -3 57 -200z m1976
169 c132 -43 197 -173 143 -289 -21 -46 -51 -75 -104 -102 l-39 -19 39 -12
c154 -46 203 -240 92 -366 -100 -114 -359 -146 -531 -66 -33 15 -33 21 -11
106 13 50 21 64 33 60 8 -2 35 -12 60 -21 107 -40 240 -25 276 31 21 31 20 88
0 119 -30 45 -64 59 -155 65 l-86 5 -3 71 -3 71 71 7 c84 7 131 25 154 57 45
65 -18 139 -118 139 -30 0 -117 -23 -167 -44 -13 -6 -20 5 -34 55 -9 35 -19
68 -22 75 -4 12 72 49 134 63 66 15 216 13 271 -5z"/>
<path d="M2337 1953 c-4 -3 -7 -66 -7 -140 l0 -133 68 0 c44 0 79 6 102 18
102 51 107 198 7 245 -35 17 -157 24 -170 10z"/>
</g>
</svg>
