<svg width="80" id="Layer_1" data-name="Layer 1" xmlns="http://www.w3.org/2000/svg" viewBox="0 0 33 32"><defs><style>.cls-1{fill:#545e6b;}</style></defs><polygon class="cls-1" points="24.5 0 22.5 0 8.5 0 8.5 14 10.5 14 10.5 2 22.5 2 22.5 10 30.5 10 30.5 30 26.5 30 10.5 30 8.5 30 8.5 32 32.5 32 32.5 10 32.5 8 24.5 0"/><path class="cls-1" d="M15.79,19.81a1.78,1.78,0,0,0-.78-.5,3.68,3.68,0,0,0-1.11-.15H13V25h.78c1.74,0,2.61-1,2.61-2.93a5.38,5.38,0,0,0-.15-1.38A2.23,2.23,0,0,0,15.79,19.81Z"/><path class="cls-1" d="M28.5,16H.5V28h28Zm-18,5.55a2.24,2.24,0,0,1-.55.82A2.85,2.85,0,0,1,9,23a3.78,3.78,0,0,1-1.37.23h-1v2.74h-1V18.28H7.81a4.86,4.86,0,0,1,1.09.12,2.75,2.75,0,0,1,.92.41,2.13,2.13,0,0,1,.63.73,2.33,2.33,0,0,1,.23,1.08A2.77,2.77,0,0,1,10.51,21.55Zm6.9,1.53a4.56,4.56,0,0,1-.27.93,3.37,3.37,0,0,1-.49.79,2.73,2.73,0,0,1-.73.61,3.66,3.66,0,0,1-1,.39,5.72,5.72,0,0,1-1.3.13H12V18.28h2a3.5,3.5,0,0,1,2.67.92A3.92,3.92,0,0,1,17.5,22,6.06,6.06,0,0,1,17.41,23.08Zm6-3.91H20.19v2.48h3.08v.87H20.19v3.41H19.12V18.28h4.32Z"/><path class="cls-1" d="M7.76,19.14H6.7V22.3h1a2.23,2.23,0,0,0,1.43-.41,1.49,1.49,0,0,0,.5-1.22,1.34,1.34,0,0,0-.49-1.13A2,2,0,0,0,7.76,19.14Z"/></svg>