<svg width="80" viewBox="0 0 30 30" fill="none" xmlns="http://www.w3.org/2000/svg">
<path d="M21.8193 0H19.9993H7.2793V12.73H9.0893V1.82H19.9993V9.09H27.2793V27.27H23.6393H9.0893H7.2793V29.09H29.0893V9.09V7.27L21.8193 0Z" fill="#545E6B"/>
<path d="M13.0895 17.52C12.6695 17.52 12.3495 17.55 12.1895 17.6V20.48C12.3995 20.54 12.6595 20.56 12.9795 20.56C14.1395 20.56 14.8395 19.99 14.8395 18.99C14.8395 17.99 14.1395 17.53 13.0895 17.53V17.52Z" fill="#545E6B"/>
<path d="M6.71054 17.52C6.29054 17.52 5.97055 17.55 5.81055 17.6V20.48C6.02055 20.54 6.28055 20.56 6.60055 20.56C7.76055 20.56 8.46054 19.99 8.46054 18.99C8.46054 17.99 7.76054 17.53 6.71054 17.53V17.52Z" fill="#545E6B"/>
<path d="M0 14.55V25.46H25.45V14.55H0ZM8.84 20.51C8.32 21.05 7.51 21.32 6.57 21.32C6.28 21.32 6.02 21.31 5.8 21.25V24.22H4.84V16.89C5.3 16.81 5.91 16.75 6.68 16.75C7.63 16.75 8.32 16.97 8.76 17.37C9.16 17.72 9.41 18.26 9.41 18.92C9.41 19.58 9.21 20.12 8.84 20.5V20.51ZM15.22 20.51C14.7 21.05 13.89 21.32 12.95 21.32C12.66 21.32 12.4 21.31 12.18 21.25V24.22H11.22V16.89C11.68 16.81 12.29 16.75 13.06 16.75C14.01 16.75 14.7 16.97 15.14 17.37C15.54 17.72 15.79 18.26 15.79 18.92C15.79 19.58 15.59 20.12 15.22 20.5V20.51ZM22.25 17.63H19.98V24.23H19.01V17.63H16.76V16.82H22.25V17.63Z" fill="#545E6B"/>
</svg>
