<svg width="80"  viewBox="0 0 30 30" fill="none" xmlns="http://www.w3.org/2000/svg">
<path d="M21.8193 0H19.9993H7.2793V12.73H9.08929V1.82H19.9993V9.09H27.2793V27.27H23.6393H9.08929H7.2793V29.09H29.0893V9.09V7.27L21.8193 0Z" fill="#545E6B"/>
<path d="M3.68914 17.8701C3.30914 17.8701 3.01914 17.9001 2.86914 17.9401V20.5601C3.05914 20.6101 3.29914 20.6301 3.58914 20.6301C4.63914 20.6301 5.27914 20.1101 5.27914 19.2001C5.27914 18.2901 4.63914 17.8701 3.68914 17.8701Z" fill="#545E6B"/>
<path d="M9.48016 17.8701C9.10016 17.8701 8.81016 17.9001 8.66016 17.9401V20.5601C8.85016 20.6101 9.09016 20.6301 9.38016 20.6301C10.4302 20.6301 11.0702 20.1101 11.0702 19.2001C11.0702 18.2901 10.4302 17.8701 9.48016 17.8701Z" fill="#545E6B"/>
<path d="M0 14.55V25.46H25.45V14.55H0ZM5.63 20.59C5.16 21.08 4.42 21.33 3.57 21.33C3.31 21.33 3.07 21.33 2.87 21.27V23.97H2V17.31C2.42 17.24 2.97 17.18 3.67 17.18C4.53 17.18 5.16 17.38 5.56 17.74C5.92 18.06 6.14999 18.55 6.14999 19.15C6.14999 19.75 5.97 20.24 5.63 20.59ZM11.42 20.59C10.95 21.08 10.21 21.33 9.35999 21.33C9.09999 21.33 8.86 21.33 8.66 21.27V23.97H7.78999V17.31C8.20999 17.24 8.76 17.18 9.46 17.18C10.32 17.18 10.95 17.38 11.35 17.74C11.71 18.06 11.94 18.55 11.94 19.15C11.94 19.75 11.76 20.24 11.42 20.59ZM17.8 17.97H15.74V23.97H14.86V17.97H12.81V17.23H17.8V17.97ZM22.93 23.97L22.06 22.48C21.71 21.91 21.5 21.54 21.29 21.15H21.27C21.08 21.54 20.88 21.9 20.54 22.49L19.73 23.97H18.73L20.79 20.56L18.81 17.23H19.82L20.71 18.81C20.96 19.25 21.15 19.59 21.33 19.95H21.36C21.55 19.55 21.72 19.24 21.97 18.81L22.88 17.23H23.89L21.84 20.51L23.94 23.97H22.93Z" fill="#545E6B"/>
</svg>
