<svg width="80" viewBox="0 0 30 30" fill="none" xmlns="http://www.w3.org/2000/svg">
<path d="M22.0498 0H20.2298H7.50977V12.73H9.31978V1.82H20.2298V9.09H27.5098V27.27H23.8698H9.31978H7.50977V29.09H29.3198V9.09V7.27L22.0498 0Z" fill="#545E6B"/>
<path d="M0.230469 14.55V25.46H25.6805V14.55H0.230469ZM8.98047 23.71L8.02048 22.07C7.64048 21.44 7.40047 21.04 7.17047 20.61H7.15047C6.94047 21.04 6.72048 21.44 6.35048 22.08L5.46048 23.71H4.36047L6.63048 19.96L4.45047 16.3H5.56047L6.54047 18.04C6.82047 18.52 7.02047 18.9 7.22047 19.29H7.25047C7.46047 18.85 7.65047 18.51 7.92047 18.04L8.92047 16.3H10.0305L7.77048 19.91L10.0805 23.72H8.97047L8.98047 23.71ZM15.8605 23.71H11.7205V16.29H12.6905V22.9H15.8605V23.7V23.71ZM18.9705 23.83C18.2605 23.83 17.4705 23.61 17.0805 23.35L17.3305 22.55C17.7605 22.82 18.3705 23.03 19.0405 23.03C20.0205 23.03 20.5905 22.51 20.5905 21.76C20.5905 21.08 20.1905 20.67 19.1905 20.3C17.9805 19.86 17.2305 19.22 17.2305 18.19C17.2305 17.03 18.1905 16.18 19.6305 16.18C20.3805 16.18 20.9405 16.36 21.2605 16.54L21.0005 17.32C20.7705 17.18 20.2705 16.97 19.6005 16.97C18.5905 16.97 18.2005 17.58 18.2005 18.08C18.2005 18.77 18.6505 19.11 19.6705 19.51C20.9205 19.99 21.5505 20.6 21.5505 21.69C21.5505 22.83 20.7105 23.84 18.9705 23.84V23.83Z" fill="#545E6B"/>
</svg>
