<svg width="80" id="Layer_1" data-name="Layer 1" xmlns="http://www.w3.org/2000/svg" viewBox="0 0 33 32"><defs><style>.cls-1{fill:#545e6b;}</style></defs><polygon class="cls-1" points="24.5 0 22.5 0 8.5 0 8.5 14 10.5 14 10.5 2 22.5 2 22.5 10 30.5 10 30.5 30 26.5 30 10.5 30 8.5 30 8.5 32 32.5 32 32.5 10 32.5 8 24.5 0"/><path class="cls-1" d="M28.5,16H.5V28h28ZM6.26,26,4.39,22.91,2.52,26H1.22l2.55-3.91L1.43,18.34H2.66l1.76,2.89,1.76-2.89h1.2L5,22l2.54,4Zm7.23,0H9.08V18.34h1.06v6.77h3.35Zm6.44-1.12a1.84,1.84,0,0,1-.62.68,2.71,2.71,0,0,1-1,.41,5.2,5.2,0,0,1-1.23.14c-.2,0-.41,0-.61,0a5.42,5.42,0,0,1-.58-.06l-.52-.08-.45-.1v-1a5.28,5.28,0,0,0,1,.26,6.73,6.73,0,0,0,1.25.1,4.09,4.09,0,0,0,.85-.08,1.63,1.63,0,0,0,.58-.24A1,1,0,0,0,19,24.5a1.19,1.19,0,0,0,.1-.51.79.79,0,0,0-.17-.53,1.76,1.76,0,0,0-.45-.4,4.24,4.24,0,0,0-.64-.31l-.74-.3c-.25-.1-.49-.21-.73-.33a3,3,0,0,1-.65-.42,2.06,2.06,0,0,1-.45-.57,1.6,1.6,0,0,1-.17-.78,2,2,0,0,1,.16-.78,1.82,1.82,0,0,1,.51-.67,2.6,2.6,0,0,1,.89-.48,4.1,4.1,0,0,1,1.29-.18h.42l.46.05.45.08c.15,0,.29.05.42.09v.93a7.21,7.21,0,0,0-.9-.19,5.27,5.27,0,0,0-.87-.07,2.3,2.3,0,0,0-1.32.3.94.94,0,0,0-.42.8.79.79,0,0,0,.17.53,1.59,1.59,0,0,0,.45.4,3.28,3.28,0,0,0,.65.32l.73.3c.25.1.5.21.74.33a3.25,3.25,0,0,1,.64.43,2,2,0,0,1,.45.59,1.62,1.62,0,0,1,.17.79A1.93,1.93,0,0,1,19.93,24.88ZM26.05,26l-1.86-3.09L22.32,26H21l2.54-3.91-2.34-3.75h1.24l1.75,2.89L26,18.34h1.2L24.82,22l2.55,4Z"/></svg>