<svg width="800" height="152" viewBox="0 0 800 152" fill="none" xmlns="http://www.w3.org/2000/svg">
    <g clip-path="url(#clip0_2314_47728)">
        <rect width="800" height="152" transform="translate(-0.000244141)" fill="white"/>
        <g clip-path="url(#clip1_2314_47728)">
            <rect width="800" height="32" transform="translate(-0.000244141)" fill="#EEEEEE"/>
            <path d="M35.5138 11.326C37.0164 11.326 38.2158 11.6667 39.1118 12.348C40.0171 13.0293 40.4698 14.2847 40.4698 16.114C40.4698 17.906 40.0264 19.1707 39.1398 19.908C38.2531 20.636 37.1284 21 35.7658 21H33.1338V11.326H35.5138ZM34.9818 12.712V19.614H35.8918C36.7131 19.614 37.3571 19.362 37.8238 18.858C38.2904 18.3447 38.5238 17.43 38.5238 16.114C38.5238 15.1993 38.4024 14.4947 38.1598 14C37.9264 13.496 37.6138 13.1553 37.2218 12.978C36.8391 12.8007 36.3771 12.712 35.8358 12.712H34.9818ZM43.9479 13.594V21H42.1559V13.594H43.9479ZM43.0379 9.842C43.3739 9.842 43.6445 9.94933 43.8499 10.164C44.0645 10.3693 44.1719 10.626 44.1719 10.934C44.1719 11.242 44.0645 11.4987 43.8499 11.704C43.6445 11.9093 43.3739 12.012 43.0379 12.012C42.7112 12.012 42.4405 11.9093 42.2259 11.704C42.0205 11.4987 41.9179 11.242 41.9179 10.934C41.9179 10.626 42.0205 10.3693 42.2259 10.164C42.4405 9.94933 42.7112 9.842 43.0379 9.842ZM52.0571 13.594L49.6491 21H47.5071L45.0571 13.594H47.0031L48.5851 19.558L50.2091 13.594H52.0571ZM54.9537 13.594V21H53.1617V13.594H54.9537ZM54.0437 9.842C54.3797 9.842 54.6504 9.94933 54.8557 10.164C55.0704 10.3693 55.1777 10.626 55.1777 10.934C55.1777 11.242 55.0704 11.4987 54.8557 11.704C54.6504 11.9093 54.3797 12.012 54.0437 12.012C53.7171 12.012 53.4464 11.9093 53.2317 11.704C53.0264 11.4987 52.9237 11.242 52.9237 10.934C52.9237 10.626 53.0264 10.3693 53.2317 10.164C53.4464 9.94933 53.7171 9.842 54.0437 9.842ZM63.3429 10.626V21H61.7609L61.6349 20.062C61.4016 20.4167 61.1029 20.6967 60.7389 20.902C60.3842 21.1073 59.9782 21.21 59.5209 21.21C58.6156 21.21 57.9202 20.86 57.4349 20.16C56.9496 19.46 56.7069 18.508 56.7069 17.304C56.7069 16.548 56.8282 15.876 57.0709 15.288C57.3136 14.6907 57.6589 14.224 58.1069 13.888C58.5642 13.552 59.0916 13.384 59.6889 13.384C60.3982 13.384 61.0189 13.65 61.5509 14.182V10.43L63.3429 10.626ZM60.0249 19.852C60.3422 19.852 60.6222 19.7773 60.8649 19.628C61.1076 19.4693 61.3362 19.2267 61.5509 18.9V15.512C61.3362 15.2507 61.1169 15.0547 60.8929 14.924C60.6782 14.7933 60.4262 14.728 60.1369 14.728C59.6609 14.728 59.2829 14.9427 59.0029 15.372C58.7322 15.792 58.5969 16.4313 58.5969 17.29C58.5969 18.2047 58.7182 18.8627 58.9609 19.264C59.2036 19.656 59.5582 19.852 60.0249 19.852ZM71.5698 17.122C71.5698 17.2153 71.5558 17.458 71.5278 17.85H66.8798C66.9358 18.5687 67.1224 19.082 67.4398 19.39C67.7571 19.698 68.1771 19.852 68.6998 19.852C69.0264 19.852 69.3344 19.8007 69.6238 19.698C69.9131 19.586 70.2211 19.418 70.5478 19.194L71.2898 20.216C70.4684 20.8787 69.5538 21.21 68.5458 21.21C67.4164 21.21 66.5438 20.8647 65.9278 20.174C65.3211 19.4833 65.0178 18.5407 65.0178 17.346C65.0178 16.59 65.1484 15.9133 65.4098 15.316C65.6711 14.7093 66.0491 14.238 66.5438 13.902C67.0384 13.5567 67.6264 13.384 68.3078 13.384C69.3438 13.384 70.1464 13.7153 70.7158 14.378C71.2851 15.0313 71.5698 15.946 71.5698 17.122ZM69.7918 16.604C69.7918 15.3067 69.3111 14.658 68.3498 14.658C67.9111 14.658 67.5658 14.8213 67.3138 15.148C67.0711 15.4653 66.9264 15.9787 66.8798 16.688H69.7918V16.604ZM76.8314 13.398C77.102 13.398 77.3494 13.4307 77.5734 13.496L77.2654 15.232C77.0414 15.176 76.822 15.148 76.6074 15.148C76.1687 15.148 75.8234 15.3067 75.5714 15.624C75.3194 15.932 75.1187 16.408 74.9694 17.052V21H73.1774V13.594H74.7314L74.8994 15.05C75.0767 14.518 75.3334 14.112 75.6694 13.832C76.0054 13.5427 76.3927 13.398 76.8314 13.398ZM79.4118 18.942C79.7292 18.942 79.9998 19.054 80.2238 19.278C80.4478 19.4927 80.5598 19.7587 80.5598 20.076C80.5598 20.384 80.4478 20.65 80.2238 20.874C79.9998 21.098 79.7292 21.21 79.4118 21.21C79.1038 21.21 78.8378 21.098 78.6138 20.874C78.3992 20.65 78.2918 20.384 78.2918 20.076C78.2918 19.7587 78.3992 19.4927 78.6138 19.278C78.8285 19.054 79.0945 18.942 79.4118 18.942ZM79.4118 13.958C79.7292 13.958 79.9998 14.07 80.2238 14.294C80.4478 14.5087 80.5598 14.7747 80.5598 15.092C80.5598 15.4 80.4478 15.666 80.2238 15.89C79.9998 16.114 79.7292 16.226 79.4118 16.226C79.1038 16.226 78.8378 16.114 78.6138 15.89C78.3992 15.666 78.2918 15.4 78.2918 15.092C78.2918 14.7747 78.3992 14.5087 78.6138 14.294C78.8285 14.07 79.0945 13.958 79.4118 13.958ZM91.1471 21L90.4191 18.578H86.7651L86.0371 21H84.6931L87.7871 11.354H89.4671L92.5471 21H91.1471ZM87.0871 17.5H90.0971L88.5991 12.46L87.0871 17.5ZM99.6765 10.654V21H98.5425L98.4165 19.978C98.1739 20.3513 97.8705 20.6453 97.5065 20.86C97.1425 21.0653 96.7365 21.168 96.2885 21.168C95.4112 21.168 94.7252 20.8227 94.2305 20.132C93.7452 19.4413 93.5025 18.5127 93.5025 17.346C93.5025 16.59 93.6192 15.918 93.8525 15.33C94.0859 14.742 94.4219 14.2847 94.8605 13.958C95.2992 13.622 95.8125 13.454 96.4005 13.454C97.1565 13.454 97.8192 13.7573 98.3885 14.364V10.5L99.6765 10.654ZM96.5685 20.146C96.9605 20.146 97.2965 20.0573 97.5765 19.88C97.8565 19.6933 98.1272 19.418 98.3885 19.054V15.442C98.1459 15.1247 97.8845 14.8867 97.6045 14.728C97.3339 14.56 97.0259 14.476 96.6805 14.476C96.1112 14.476 95.6679 14.714 95.3505 15.19C95.0425 15.666 94.8885 16.3753 94.8885 17.318C94.8885 18.27 95.0332 18.9793 95.3225 19.446C95.6119 19.9127 96.0272 20.146 96.5685 20.146ZM108.044 10.654V21H106.91L106.784 19.978C106.541 20.3513 106.238 20.6453 105.874 20.86C105.51 21.0653 105.104 21.168 104.656 21.168C103.778 21.168 103.092 20.8227 102.598 20.132C102.112 19.4413 101.87 18.5127 101.87 17.346C101.87 16.59 101.986 15.918 102.22 15.33C102.453 14.742 102.789 14.2847 103.228 13.958C103.666 13.622 104.18 13.454 104.768 13.454C105.524 13.454 106.186 13.7573 106.756 14.364V10.5L108.044 10.654ZM104.936 20.146C105.328 20.146 105.664 20.0573 105.944 19.88C106.224 19.6933 106.494 19.418 106.756 19.054V15.442C106.513 15.1247 106.252 14.8867 105.972 14.728C105.701 14.56 105.393 14.476 105.048 14.476C104.478 14.476 104.035 14.714 103.718 15.19C103.41 15.666 103.256 16.3753 103.256 17.318C103.256 18.27 103.4 18.9793 103.69 19.446C103.979 19.9127 104.394 20.146 104.936 20.146ZM120.116 10.654V21H118.982L118.856 19.978C118.613 20.3513 118.31 20.6453 117.946 20.86C117.582 21.0653 117.176 21.168 116.728 21.168C115.851 21.168 115.165 20.8227 114.67 20.132C114.185 19.4413 113.942 18.5127 113.942 17.346C113.942 16.59 114.059 15.918 114.292 15.33C114.525 14.742 114.861 14.2847 115.3 13.958C115.739 13.622 116.252 13.454 116.84 13.454C117.596 13.454 118.259 13.7573 118.828 14.364V10.5L120.116 10.654ZM117.008 20.146C117.4 20.146 117.736 20.0573 118.016 19.88C118.296 19.6933 118.567 19.418 118.828 19.054V15.442C118.585 15.1247 118.324 14.8867 118.044 14.728C117.773 14.56 117.465 14.476 117.12 14.476C116.551 14.476 116.107 14.714 115.79 15.19C115.482 15.666 115.328 16.3753 115.328 17.318C115.328 18.27 115.473 18.9793 115.762 19.446C116.051 19.9127 116.467 20.146 117.008 20.146ZM124.059 13.622V21H122.771V13.622H124.059ZM123.401 10.08C123.672 10.08 123.891 10.164 124.059 10.332C124.227 10.5 124.311 10.71 124.311 10.962C124.311 11.214 124.227 11.424 124.059 11.592C123.891 11.7507 123.672 11.83 123.401 11.83C123.14 11.83 122.925 11.7507 122.757 11.592C122.589 11.424 122.505 11.214 122.505 10.962C122.505 10.71 122.589 10.5 122.757 10.332C122.925 10.164 123.14 10.08 123.401 10.08ZM132.14 13.622L129.634 21H128.08L125.532 13.622H126.932L128.864 19.852L130.782 13.622H132.14ZM134.901 13.622V21H133.613V13.622H134.901ZM134.243 10.08C134.514 10.08 134.733 10.164 134.901 10.332C135.069 10.5 135.153 10.71 135.153 10.962C135.153 11.214 135.069 11.424 134.901 11.592C134.733 11.7507 134.514 11.83 134.243 11.83C133.982 11.83 133.767 11.7507 133.599 11.592C133.431 11.424 133.347 11.214 133.347 10.962C133.347 10.71 133.431 10.5 133.599 10.332C133.767 10.164 133.982 10.08 134.243 10.08ZM139.566 13.454C140.07 13.454 140.523 13.524 140.924 13.664C141.325 13.804 141.708 14.014 142.072 14.294L141.526 15.106C141.19 14.8913 140.868 14.7327 140.56 14.63C140.261 14.5273 139.944 14.476 139.608 14.476C139.188 14.476 138.857 14.5647 138.614 14.742C138.371 14.91 138.25 15.1433 138.25 15.442C138.25 15.7407 138.362 15.974 138.586 16.142C138.819 16.31 139.235 16.4733 139.832 16.632C140.653 16.8373 141.265 17.1173 141.666 17.472C142.077 17.8267 142.282 18.312 142.282 18.928C142.282 19.656 141.997 20.2113 141.428 20.594C140.868 20.9767 140.182 21.168 139.37 21.168C138.25 21.168 137.321 20.846 136.584 20.202L137.27 19.418C137.895 19.894 138.586 20.132 139.342 20.132C139.827 20.132 140.21 20.034 140.49 19.838C140.779 19.6327 140.924 19.3573 140.924 19.012C140.924 18.76 140.873 18.5593 140.77 18.41C140.667 18.2513 140.49 18.116 140.238 18.004C139.986 17.8827 139.617 17.7567 139.132 17.626C138.348 17.4207 137.779 17.1453 137.424 16.8C137.079 16.4547 136.906 16.016 136.906 15.484C136.906 15.1013 137.018 14.756 137.242 14.448C137.475 14.1307 137.793 13.888 138.194 13.72C138.605 13.5427 139.062 13.454 139.566 13.454ZM145.387 13.622V21H144.099V13.622H145.387ZM144.729 10.08C145 10.08 145.219 10.164 145.387 10.332C145.555 10.5 145.639 10.71 145.639 10.962C145.639 11.214 145.555 11.424 145.387 11.592C145.219 11.7507 145 11.83 144.729 11.83C144.468 11.83 144.253 11.7507 144.085 11.592C143.917 11.424 143.833 11.214 143.833 10.962C143.833 10.71 143.917 10.5 144.085 10.332C144.253 10.164 144.468 10.08 144.729 10.08ZM150.822 13.454C151.858 13.454 152.661 13.7993 153.23 14.49C153.809 15.1807 154.098 16.1187 154.098 17.304C154.098 18.0693 153.968 18.746 153.706 19.334C153.445 19.9127 153.067 20.3653 152.572 20.692C152.078 21.0093 151.49 21.168 150.808 21.168C149.772 21.168 148.965 20.8227 148.386 20.132C147.808 19.4413 147.518 18.5033 147.518 17.318C147.518 16.5527 147.649 15.8807 147.91 15.302C148.172 14.714 148.55 14.2613 149.044 13.944C149.539 13.6173 150.132 13.454 150.822 13.454ZM150.822 14.49C149.544 14.49 148.904 15.4327 148.904 17.318C148.904 19.194 149.539 20.132 150.808 20.132C152.078 20.132 152.712 19.1893 152.712 17.304C152.712 15.428 152.082 14.49 150.822 14.49ZM159.698 13.454C160.37 13.454 160.893 13.6547 161.266 14.056C161.649 14.4573 161.84 15.008 161.84 15.708V21H160.552V15.89C160.552 15.3673 160.454 14.9987 160.258 14.784C160.062 14.5693 159.773 14.462 159.39 14.462C158.998 14.462 158.653 14.574 158.354 14.798C158.056 15.022 157.776 15.344 157.514 15.764V21H156.226V13.622H157.332L157.444 14.714C157.706 14.322 158.028 14.014 158.41 13.79C158.802 13.566 159.232 13.454 159.698 13.454ZM166.431 13.454C166.935 13.454 167.388 13.524 167.789 13.664C168.191 13.804 168.573 14.014 168.937 14.294L168.391 15.106C168.055 14.8913 167.733 14.7327 167.425 14.63C167.127 14.5273 166.809 14.476 166.473 14.476C166.053 14.476 165.722 14.5647 165.479 14.742C165.237 14.91 165.115 15.1433 165.115 15.442C165.115 15.7407 165.227 15.974 165.451 16.142C165.685 16.31 166.1 16.4733 166.697 16.632C167.519 16.8373 168.13 17.1173 168.531 17.472C168.942 17.8267 169.147 18.312 169.147 18.928C169.147 19.656 168.863 20.2113 168.293 20.594C167.733 20.9767 167.047 21.168 166.235 21.168C165.115 21.168 164.187 20.846 163.449 20.202L164.135 19.418C164.761 19.894 165.451 20.132 166.207 20.132C166.693 20.132 167.075 20.034 167.355 19.838C167.645 19.6327 167.789 19.3573 167.789 19.012C167.789 18.76 167.738 18.5593 167.635 18.41C167.533 18.2513 167.355 18.116 167.103 18.004C166.851 17.8827 166.483 17.7567 165.997 17.626C165.213 17.4207 164.644 17.1453 164.289 16.8C163.944 16.4547 163.771 16.016 163.771 15.484C163.771 15.1013 163.883 14.756 164.107 14.448C164.341 14.1307 164.658 13.888 165.059 13.72C165.47 13.5427 165.927 13.454 166.431 13.454ZM178.044 13.454C178.884 13.454 179.551 13.7947 180.046 14.476C180.54 15.148 180.788 16.0907 180.788 17.304C180.788 18.0693 180.671 18.746 180.438 19.334C180.204 19.9127 179.868 20.3653 179.43 20.692C178.991 21.0093 178.478 21.168 177.89 21.168C177.115 21.168 176.462 20.8413 175.93 20.188L175.804 21H174.67V10.654L175.958 10.5V14.546C176.49 13.818 177.185 13.454 178.044 13.454ZM177.582 20.146C178.151 20.146 178.594 19.9173 178.912 19.46C179.238 18.9933 179.402 18.2747 179.402 17.304C179.402 16.3053 179.252 15.5867 178.954 15.148C178.655 14.7 178.23 14.476 177.68 14.476C177.026 14.476 176.452 14.8587 175.958 15.624V19.152C176.154 19.46 176.392 19.7027 176.672 19.88C176.961 20.0573 177.264 20.146 177.582 20.146ZM188.554 17.094C188.554 17.3087 188.545 17.528 188.526 17.752H183.822C183.878 18.564 184.083 19.1613 184.438 19.544C184.793 19.9267 185.25 20.118 185.81 20.118C186.165 20.118 186.491 20.0667 186.79 19.964C187.089 19.8613 187.401 19.698 187.728 19.474L188.288 20.244C187.504 20.86 186.645 21.168 185.712 21.168C184.685 21.168 183.883 20.832 183.304 20.16C182.735 19.488 182.45 18.564 182.45 17.388C182.45 16.6227 182.571 15.946 182.814 15.358C183.066 14.7607 183.421 14.294 183.878 13.958C184.345 13.622 184.891 13.454 185.516 13.454C186.496 13.454 187.247 13.776 187.77 14.42C188.293 15.064 188.554 15.9553 188.554 17.094ZM187.28 16.716C187.28 15.988 187.135 15.4327 186.846 15.05C186.557 14.6673 186.123 14.476 185.544 14.476C184.489 14.476 183.915 15.2507 183.822 16.8H187.28V16.716ZM194.335 20.664C193.85 21 193.299 21.168 192.683 21.168C192.058 21.168 191.568 20.9907 191.213 20.636C190.868 20.272 190.695 19.7493 190.695 19.068V14.616H189.407V13.622H190.695V11.956L191.983 11.802V13.622H193.733L193.593 14.616H191.983V19.012C191.983 19.3947 192.048 19.6747 192.179 19.852C192.319 20.02 192.548 20.104 192.865 20.104C193.154 20.104 193.481 20.006 193.845 19.81L194.335 20.664ZM204.098 13.622L202.418 21H200.668L199.38 14.784L198.05 21H196.342L194.62 13.622H195.908L197.238 20.104L198.694 13.622H200.136L201.522 20.104L202.866 13.622H204.098ZM211.277 17.094C211.277 17.3087 211.267 17.528 211.249 17.752H206.545C206.601 18.564 206.806 19.1613 207.161 19.544C207.515 19.9267 207.973 20.118 208.533 20.118C208.887 20.118 209.214 20.0667 209.513 19.964C209.811 19.8613 210.124 19.698 210.451 19.474L211.011 20.244C210.227 20.86 209.368 21.168 208.435 21.168C207.408 21.168 206.605 20.832 206.027 20.16C205.457 19.488 205.173 18.564 205.173 17.388C205.173 16.6227 205.294 15.946 205.537 15.358C205.789 14.7607 206.143 14.294 206.601 13.958C207.067 13.622 207.613 13.454 208.239 13.454C209.219 13.454 209.97 13.776 210.493 14.42C211.015 15.064 211.277 15.9553 211.277 17.094ZM210.003 16.716C210.003 15.988 209.858 15.4327 209.569 15.05C209.279 14.6673 208.845 14.476 208.267 14.476C207.212 14.476 206.638 15.2507 206.545 16.8H210.003V16.716ZM218.906 17.094C218.906 17.3087 218.896 17.528 218.878 17.752H214.174C214.23 18.564 214.435 19.1613 214.79 19.544C215.144 19.9267 215.602 20.118 216.162 20.118C216.516 20.118 216.843 20.0667 217.142 19.964C217.44 19.8613 217.753 19.698 218.08 19.474L218.64 20.244C217.856 20.86 216.997 21.168 216.064 21.168C215.037 21.168 214.234 20.832 213.656 20.16C213.086 19.488 212.802 18.564 212.802 17.388C212.802 16.6227 212.923 15.946 213.166 15.358C213.418 14.7607 213.772 14.294 214.23 13.958C214.696 13.622 215.242 13.454 215.868 13.454C216.848 13.454 217.599 13.776 218.122 14.42C218.644 15.064 218.906 15.9553 218.906 17.094ZM217.632 16.716C217.632 15.988 217.487 15.4327 217.198 15.05C216.908 14.6673 216.474 14.476 215.896 14.476C214.841 14.476 214.267 15.2507 214.174 16.8H217.632V16.716ZM224.435 13.454C225.107 13.454 225.629 13.6547 226.003 14.056C226.385 14.4573 226.577 15.008 226.577 15.708V21H225.289V15.89C225.289 15.3673 225.191 14.9987 224.995 14.784C224.799 14.5693 224.509 14.462 224.127 14.462C223.735 14.462 223.389 14.574 223.091 14.798C222.792 15.022 222.512 15.344 222.251 15.764V21H220.963V13.622H222.069L222.181 14.714C222.442 14.322 222.764 14.014 223.147 13.79C223.539 13.566 223.968 13.454 224.435 13.454ZM235.825 21.042C235.535 21.9007 235.129 22.5773 234.607 23.072C234.093 23.576 233.356 23.8793 232.395 23.982L232.255 22.974C232.74 22.89 233.127 22.7687 233.417 22.61C233.706 22.4513 233.935 22.246 234.103 21.994C234.28 21.7513 234.443 21.42 234.593 21H234.159L231.681 13.622H233.053L235.027 20.062L236.959 13.622H238.289L235.825 21.042ZM242.479 13.454C243.515 13.454 244.317 13.7993 244.887 14.49C245.465 15.1807 245.755 16.1187 245.755 17.304C245.755 18.0693 245.624 18.746 245.363 19.334C245.101 19.9127 244.723 20.3653 244.229 20.692C243.734 21.0093 243.146 21.168 242.465 21.168C241.429 21.168 240.621 20.8227 240.043 20.132C239.464 19.4413 239.175 18.5033 239.175 17.318C239.175 16.5527 239.305 15.8807 239.567 15.302C239.828 14.714 240.206 14.2613 240.701 13.944C241.195 13.6173 241.788 13.454 242.479 13.454ZM242.479 14.49C241.2 14.49 240.561 15.4327 240.561 17.318C240.561 19.194 241.195 20.132 242.465 20.132C243.734 20.132 244.369 19.1893 244.369 17.304C244.369 15.428 243.739 14.49 242.479 14.49ZM253.37 21H252.264L252.166 19.852C251.886 20.3093 251.564 20.6453 251.2 20.86C250.836 21.0653 250.393 21.168 249.87 21.168C249.226 21.168 248.722 20.972 248.358 20.58C247.994 20.188 247.812 19.6327 247.812 18.914V13.622H249.1V18.774C249.1 19.278 249.189 19.6373 249.366 19.852C249.544 20.0573 249.833 20.16 250.234 20.16C250.953 20.16 251.569 19.7353 252.082 18.886V13.622H253.37V21ZM259.237 13.454C259.498 13.454 259.741 13.482 259.965 13.538L259.727 14.798C259.503 14.742 259.288 14.714 259.083 14.714C258.626 14.714 258.257 14.882 257.977 15.218C257.697 15.554 257.478 16.0767 257.319 16.786V21H256.031V13.622H257.137L257.263 15.12C257.459 14.5693 257.725 14.154 258.061 13.874C258.397 13.594 258.789 13.454 259.237 13.454ZM266.606 21.168C266.13 21.168 265.752 21.028 265.472 20.748C265.202 20.4587 265.066 20.0573 265.066 19.544V10.654L266.354 10.5V19.516C266.354 19.7213 266.387 19.8707 266.452 19.964C266.527 20.0573 266.648 20.104 266.816 20.104C266.994 20.104 267.152 20.076 267.292 20.02L267.628 20.916C267.32 21.084 266.98 21.168 266.606 21.168ZM274.14 19.278C274.14 19.5767 274.191 19.8007 274.294 19.95C274.396 20.09 274.55 20.1973 274.756 20.272L274.462 21.168C274.079 21.1213 273.771 21.014 273.538 20.846C273.304 20.678 273.132 20.4167 273.02 20.062C272.525 20.7993 271.792 21.168 270.822 21.168C270.094 21.168 269.52 20.9627 269.1 20.552C268.68 20.1413 268.47 19.6047 268.47 18.942C268.47 18.158 268.75 17.556 269.31 17.136C269.879 16.716 270.682 16.506 271.718 16.506H272.852V15.96C272.852 15.4373 272.726 15.064 272.474 14.84C272.222 14.616 271.834 14.504 271.312 14.504C270.77 14.504 270.108 14.6347 269.324 14.896L269.002 13.958C269.916 13.622 270.766 13.454 271.55 13.454C272.418 13.454 273.066 13.6687 273.496 14.098C273.925 14.518 274.14 15.12 274.14 15.904V19.278ZM271.116 20.202C271.853 20.202 272.432 19.8193 272.852 19.054V17.36H271.886C270.523 17.36 269.842 17.864 269.842 18.872C269.842 19.3107 269.949 19.642 270.164 19.866C270.378 20.09 270.696 20.202 271.116 20.202ZM280.257 13.454C280.929 13.454 281.452 13.6547 281.825 14.056C282.208 14.4573 282.399 15.008 282.399 15.708V21H281.111V15.89C281.111 15.3673 281.013 14.9987 280.817 14.784C280.621 14.5693 280.332 14.462 279.949 14.462C279.557 14.462 279.212 14.574 278.913 14.798C278.614 15.022 278.334 15.344 278.073 15.764V21H276.785V13.622H277.891L278.003 14.714C278.264 14.322 278.586 14.014 278.969 13.79C279.361 13.566 279.79 13.454 280.257 13.454ZM290.56 17.094C290.56 17.3087 290.551 17.528 290.532 17.752H285.828C285.884 18.564 286.089 19.1613 286.444 19.544C286.799 19.9267 287.256 20.118 287.816 20.118C288.171 20.118 288.497 20.0667 288.796 19.964C289.095 19.8613 289.407 19.698 289.734 19.474L290.294 20.244C289.51 20.86 288.651 21.168 287.718 21.168C286.691 21.168 285.889 20.832 285.31 20.16C284.741 19.488 284.456 18.564 284.456 17.388C284.456 16.6227 284.577 15.946 284.82 15.358C285.072 14.7607 285.427 14.294 285.884 13.958C286.351 13.622 286.897 13.454 287.522 13.454C288.502 13.454 289.253 13.776 289.776 14.42C290.299 15.064 290.56 15.9553 290.56 17.094ZM289.286 16.716C289.286 15.988 289.141 15.4327 288.852 15.05C288.563 14.6673 288.129 14.476 287.55 14.476C286.495 14.476 285.921 15.2507 285.828 16.8H289.286V16.716ZM294.619 13.454C295.123 13.454 295.576 13.524 295.977 13.664C296.378 13.804 296.761 14.014 297.125 14.294L296.579 15.106C296.243 14.8913 295.921 14.7327 295.613 14.63C295.314 14.5273 294.997 14.476 294.661 14.476C294.241 14.476 293.91 14.5647 293.667 14.742C293.424 14.91 293.303 15.1433 293.303 15.442C293.303 15.7407 293.415 15.974 293.639 16.142C293.872 16.31 294.288 16.4733 294.885 16.632C295.706 16.8373 296.318 17.1173 296.719 17.472C297.13 17.8267 297.335 18.312 297.335 18.928C297.335 19.656 297.05 20.2113 296.481 20.594C295.921 20.9767 295.235 21.168 294.423 21.168C293.303 21.168 292.374 20.846 291.637 20.202L292.323 19.418C292.948 19.894 293.639 20.132 294.395 20.132C294.88 20.132 295.263 20.034 295.543 19.838C295.832 19.6327 295.977 19.3573 295.977 19.012C295.977 18.76 295.926 18.5593 295.823 18.41C295.72 18.2513 295.543 18.116 295.291 18.004C295.039 17.8827 294.67 17.7567 294.185 17.626C293.401 17.4207 292.832 17.1453 292.477 16.8C292.132 16.4547 291.959 16.016 291.959 15.484C291.959 15.1013 292.071 14.756 292.295 14.448C292.528 14.1307 292.846 13.888 293.247 13.72C293.658 13.5427 294.115 13.454 294.619 13.454Z"
                  fill="#545E6B"/>
            <g clip-path="url(#clip2_2314_47728)">
                <rect width="16" height="16" transform="translate(7.99976 8)" fill="white" fill-opacity="0.01"/>
                <path d="M19.9998 10H11.9998V13H9.99976V8H21.9998V13H19.9998V10Z" fill="#545E6B"/>
                <path d="M19.9998 22H11.9998V19H9.99976V24H21.9998V19H19.9998V22Z" fill="#545E6B"/>
                <path d="M23.9998 15H7.99976V17H23.9998V15Z" fill="#545E6B"/>
            </g>
        </g>
        <mask id="path-3-inside-1_2314_47728" fill="white">
            <path d="M15.9998 96H184V136H15.9998V96Z"/>
        </mask>
        <path d="M15.9998 96H184V136H15.9998V96Z" fill="#F5F5F5"/>
        <path d="M184 136V137H185V136H184ZM183 96V136H185V96H183ZM184 135H15.9998V137H184V135Z" fill="black"
              fill-opacity="0.1" mask="url(#path-3-inside-1_2314_47728)"/>
        <rect width="160" height="24" transform="translate(19.9998 104)" fill="#F5F5F5"/>
        <path d="M34.9998 111.5H28.9998V113.75H27.4998V110H36.4998V113.75H34.9998V111.5Z" fill="#545E6B"/>
        <path d="M34.9998 120.5H28.9998V118.25H27.4998V122H36.4998V118.25H34.9998V120.5Z" fill="#545E6B"/>
        <path d="M37.9998 115.25H25.9998V116.75H37.9998V115.25Z" fill="#545E6B"/>
        <path d="M51.0118 111.708C52.2998 111.708 53.3278 112 54.0958 112.584C54.8718 113.168 55.2598 114.244 55.2598 115.812C55.2598 117.348 54.8798 118.432 54.1198 119.064C53.3598 119.688 52.3958 120 51.2278 120H48.9718V111.708H51.0118ZM50.5558 112.896V118.812H51.3358C52.0398 118.812 52.5918 118.596 52.9918 118.164C53.3918 117.724 53.5918 116.94 53.5918 115.812C53.5918 115.028 53.4878 114.424 53.2798 114C53.0798 113.568 52.8118 113.276 52.4758 113.124C52.1478 112.972 51.7518 112.896 51.2878 112.896H50.5558ZM58.241 113.652V120H56.705V113.652H58.241ZM57.461 110.436C57.749 110.436 57.981 110.528 58.157 110.712C58.341 110.888 58.433 111.108 58.433 111.372C58.433 111.636 58.341 111.856 58.157 112.032C57.981 112.208 57.749 112.296 57.461 112.296C57.181 112.296 56.949 112.208 56.765 112.032C56.589 111.856 56.501 111.636 56.501 111.372C56.501 111.108 56.589 110.888 56.765 110.712C56.949 110.528 57.181 110.436 57.461 110.436ZM65.1917 113.652L63.1277 120H61.2917L59.1917 113.652H60.8597L62.2157 118.764L63.6077 113.652H65.1917ZM67.6746 113.652V120H66.1386V113.652H67.6746ZM66.8946 110.436C67.1826 110.436 67.4146 110.528 67.5906 110.712C67.7746 110.888 67.8666 111.108 67.8666 111.372C67.8666 111.636 67.7746 111.856 67.5906 112.032C67.4146 112.208 67.1826 112.296 66.8946 112.296C66.6146 112.296 66.3826 112.208 66.1986 112.032C66.0226 111.856 65.9346 111.636 65.9346 111.372C65.9346 111.108 66.0226 110.888 66.1986 110.712C66.3826 110.528 66.6146 110.436 66.8946 110.436ZM74.8653 111.108V120H73.5093L73.4013 119.196C73.2013 119.5 72.9453 119.74 72.6333 119.916C72.3293 120.092 71.9813 120.18 71.5893 120.18C70.8133 120.18 70.2173 119.88 69.8013 119.28C69.3853 118.68 69.1773 117.864 69.1773 116.832C69.1773 116.184 69.2813 115.608 69.4893 115.104C69.6973 114.592 69.9933 114.192 70.3773 113.904C70.7693 113.616 71.2213 113.472 71.7333 113.472C72.3413 113.472 72.8733 113.7 73.3293 114.156V110.94L74.8653 111.108ZM72.0213 119.016C72.2933 119.016 72.5333 118.952 72.7413 118.824C72.9493 118.688 73.1453 118.48 73.3293 118.2V115.296C73.1453 115.072 72.9573 114.904 72.7653 114.792C72.5813 114.68 72.3653 114.624 72.1173 114.624C71.7093 114.624 71.3853 114.808 71.1453 115.176C70.9133 115.536 70.7973 116.084 70.7973 116.82C70.7973 117.604 70.9013 118.168 71.1093 118.512C71.3173 118.848 71.6213 119.016 72.0213 119.016ZM81.9169 116.676C81.9169 116.756 81.9049 116.964 81.8809 117.3H77.8969C77.9449 117.916 78.1049 118.356 78.3769 118.62C78.6489 118.884 79.0089 119.016 79.4569 119.016C79.7369 119.016 80.0009 118.972 80.2489 118.884C80.4969 118.788 80.7609 118.644 81.0409 118.452L81.6769 119.328C80.9729 119.896 80.1889 120.18 79.3249 120.18C78.3569 120.18 77.6089 119.884 77.0809 119.292C76.5609 118.7 76.3009 117.892 76.3009 116.868C76.3009 116.22 76.4129 115.64 76.6369 115.128C76.8609 114.608 77.1849 114.204 77.6089 113.916C78.0329 113.62 78.5369 113.472 79.1209 113.472C80.0089 113.472 80.6969 113.756 81.1849 114.324C81.6729 114.884 81.9169 115.668 81.9169 116.676ZM80.3929 116.232C80.3929 115.12 79.9809 114.564 79.1569 114.564C78.7809 114.564 78.4849 114.704 78.2689 114.984C78.0609 115.256 77.9369 115.696 77.8969 116.304H80.3929V116.232ZM86.4268 113.484C86.6588 113.484 86.8708 113.512 87.0628 113.568L86.7988 115.056C86.6068 115.008 86.4188 114.984 86.2348 114.984C85.8588 114.984 85.5628 115.12 85.3468 115.392C85.1308 115.656 84.9588 116.064 84.8308 116.616V120H83.2948V113.652H84.6268L84.7708 114.9C84.9228 114.444 85.1428 114.096 85.4308 113.856C85.7188 113.608 86.0508 113.484 86.4268 113.484Z"
              fill="#545E6B"/>
        <rect width="600" height="40" transform="translate(184 96)" fill="#EEEEEE"/>
        <path d="M192 116C192 114.895 192.895 114 194 114H774C775.104 114 776 114.895 776 116C776 117.105 775.104 118 774 118H194C192.895 118 192 117.105 192 116Z"
              fill="#9B9B9B"/>
        <g clip-path="url(#clip3_2314_47728)">
            <mask id="path-10-inside-2_2314_47728" fill="white">
                <path d="M583.916 72H783.916V96H583.916V72Z"/>
            </mask>
            <path d="M583.916 72H783.916V96H583.916V72Z" fill="#EEF1FB"/>
            <path d="M664.285 79.588C664.981 79.588 665.589 79.756 666.109 80.092C666.637 80.42 667.045 80.904 667.333 81.544C667.629 82.184 667.777 82.96 667.777 83.872C667.777 84.768 667.629 85.536 667.333 86.176C667.045 86.816 666.637 87.304 666.109 87.64C665.589 87.976 664.981 88.144 664.285 88.144C663.589 88.144 662.977 87.98 662.449 87.652C661.929 87.324 661.521 86.84 661.225 86.2C660.937 85.56 660.793 84.788 660.793 83.884C660.793 82.996 660.937 82.228 661.225 81.58C661.521 80.932 661.933 80.44 662.461 80.104C662.989 79.76 663.597 79.588 664.285 79.588ZM664.285 80.524C663.565 80.524 663.005 80.796 662.605 81.34C662.205 81.884 662.005 82.732 662.005 83.884C662.005 85.028 662.205 85.868 662.605 86.404C663.013 86.94 663.573 87.208 664.285 87.208C665.805 87.208 666.565 86.096 666.565 83.872C666.565 81.64 665.805 80.524 664.285 80.524ZM672.329 81.532C672.553 81.532 672.761 81.556 672.953 81.604L672.749 82.684C672.557 82.636 672.373 82.612 672.197 82.612C671.805 82.612 671.489 82.756 671.249 83.044C671.009 83.332 670.821 83.78 670.685 84.388V88H669.581V81.676H670.529L670.637 82.96C670.805 82.488 671.033 82.132 671.321 81.892C671.609 81.652 671.945 81.532 672.329 81.532ZM678.743 79.132V88H677.771L677.663 87.124C677.455 87.444 677.195 87.696 676.883 87.88C676.571 88.056 676.223 88.144 675.839 88.144C675.087 88.144 674.499 87.848 674.075 87.256C673.659 86.664 673.451 85.868 673.451 84.868C673.451 84.22 673.551 83.644 673.751 83.14C673.951 82.636 674.239 82.244 674.615 81.964C674.991 81.676 675.431 81.532 675.935 81.532C676.583 81.532 677.151 81.792 677.639 82.312V79L678.743 79.132ZM676.079 87.268C676.415 87.268 676.703 87.192 676.943 87.04C677.183 86.88 677.415 86.644 677.639 86.332V83.236C677.431 82.964 677.207 82.76 676.967 82.624C676.735 82.48 676.471 82.408 676.175 82.408C675.687 82.408 675.307 82.612 675.035 83.02C674.771 83.428 674.639 84.036 674.639 84.844C674.639 85.66 674.763 86.268 675.011 86.668C675.259 87.068 675.615 87.268 676.079 87.268ZM685.795 84.652C685.795 84.836 685.787 85.024 685.771 85.216H681.739C681.787 85.912 681.963 86.424 682.267 86.752C682.571 87.08 682.963 87.244 683.443 87.244C683.747 87.244 684.027 87.2 684.283 87.112C684.539 87.024 684.807 86.884 685.087 86.692L685.567 87.352C684.895 87.88 684.159 88.144 683.359 88.144C682.479 88.144 681.791 87.856 681.295 87.28C680.807 86.704 680.563 85.912 680.563 84.904C680.563 84.248 680.667 83.668 680.875 83.164C681.091 82.652 681.395 82.252 681.787 81.964C682.187 81.676 682.655 81.532 683.191 81.532C684.031 81.532 684.675 81.808 685.123 82.36C685.571 82.912 685.795 83.676 685.795 84.652ZM684.703 84.328C684.703 83.704 684.579 83.228 684.331 82.9C684.083 82.572 683.711 82.408 683.215 82.408C682.311 82.408 681.819 83.072 681.739 84.4H684.703V84.328ZM690.306 81.532C690.53 81.532 690.738 81.556 690.93 81.604L690.726 82.684C690.534 82.636 690.35 82.612 690.174 82.612C689.782 82.612 689.466 82.756 689.226 83.044C688.986 83.332 688.798 83.78 688.662 84.388V88H687.558V81.676H688.506L688.614 82.96C688.782 82.488 689.01 82.132 689.298 81.892C689.586 81.652 689.922 81.532 690.306 81.532ZM693.291 81.676V88H692.187V81.676H693.291ZM692.727 78.64C692.959 78.64 693.147 78.712 693.291 78.856C693.435 79 693.507 79.18 693.507 79.396C693.507 79.612 693.435 79.792 693.291 79.936C693.147 80.072 692.959 80.14 692.727 80.14C692.503 80.14 692.319 80.072 692.175 79.936C692.031 79.792 691.959 79.612 691.959 79.396C691.959 79.18 692.031 79 692.175 78.856C692.319 78.712 692.503 78.64 692.727 78.64ZM698.549 81.532C699.125 81.532 699.573 81.704 699.893 82.048C700.221 82.392 700.385 82.864 700.385 83.464V88H699.281V83.62C699.281 83.172 699.197 82.856 699.029 82.672C698.861 82.488 698.613 82.396 698.285 82.396C697.949 82.396 697.653 82.492 697.397 82.684C697.141 82.876 696.901 83.152 696.677 83.512V88H695.573V81.676H696.521L696.617 82.612C696.841 82.276 697.117 82.012 697.445 81.82C697.781 81.628 698.149 81.532 698.549 81.532ZM707.705 81.964C707.465 82.044 707.201 82.096 706.913 82.12C706.625 82.144 706.273 82.156 705.857 82.156C706.601 82.492 706.973 83.024 706.973 83.752C706.973 84.384 706.757 84.9 706.325 85.3C705.893 85.7 705.305 85.9 704.561 85.9C704.273 85.9 704.005 85.86 703.757 85.78C703.661 85.844 703.585 85.932 703.529 86.044C703.473 86.148 703.445 86.256 703.445 86.368C703.445 86.712 703.721 86.884 704.273 86.884H705.281C705.705 86.884 706.081 86.96 706.409 87.112C706.737 87.264 706.989 87.472 707.165 87.736C707.349 88 707.441 88.3 707.441 88.636C707.441 89.252 707.189 89.724 706.685 90.052C706.181 90.388 705.445 90.556 704.477 90.556C703.797 90.556 703.257 90.484 702.857 90.34C702.465 90.204 702.185 89.996 702.017 89.716C701.849 89.436 701.765 89.076 701.765 88.636H702.761C702.761 88.892 702.809 89.092 702.905 89.236C703.001 89.388 703.173 89.5 703.421 89.572C703.669 89.652 704.021 89.692 704.477 89.692C705.141 89.692 705.613 89.608 705.893 89.44C706.181 89.28 706.325 89.036 706.325 88.708C706.325 88.412 706.213 88.188 705.989 88.036C705.765 87.884 705.453 87.808 705.053 87.808H704.057C703.521 87.808 703.113 87.696 702.833 87.472C702.561 87.24 702.425 86.952 702.425 86.608C702.425 86.4 702.485 86.2 702.605 86.008C702.725 85.816 702.897 85.644 703.121 85.492C702.753 85.3 702.481 85.064 702.305 84.784C702.137 84.496 702.053 84.148 702.053 83.74C702.053 83.316 702.157 82.936 702.365 82.6C702.581 82.264 702.873 82.004 703.241 81.82C703.617 81.628 704.033 81.532 704.489 81.532C704.985 81.54 705.401 81.524 705.737 81.484C706.073 81.436 706.349 81.376 706.565 81.304C706.789 81.224 707.061 81.112 707.381 80.968L707.705 81.964ZM704.489 82.324C704.073 82.324 703.749 82.456 703.517 82.72C703.293 82.976 703.181 83.316 703.181 83.74C703.181 84.172 703.297 84.52 703.529 84.784C703.761 85.04 704.089 85.168 704.513 85.168C704.945 85.168 705.273 85.044 705.497 84.796C705.729 84.54 705.845 84.184 705.845 83.728C705.845 82.792 705.393 82.324 704.489 82.324Z"
                  fill="#1B3380"/>
        </g>
        <path d="M783.916 95H583.916V97H783.916V95Z" fill="black" fill-opacity="0.1"
              mask="url(#path-10-inside-2_2314_47728)"/>
        <mask id="path-13-inside-3_2314_47728" fill="white">
            <path d="M383.916 72H583.916V96H383.916V72Z"/>
        </mask>
        <path d="M383.916 72H583.916V96H383.916V72Z" fill="#EEF1FB"/>
        <path d="M583.916 96V97H584.916V96H583.916ZM582.916 72V96H584.916V72H582.916ZM583.916 95H383.916V97H583.916V95Z"
              fill="black" fill-opacity="0.1" mask="url(#path-13-inside-3_2314_47728)"/>
        <path d="M465.856 79.732L465.724 80.644H462.52V83.344H465.304V84.256H462.52V87.088H465.952V88H461.38V79.732H465.856ZM470.6 81.532C471.176 81.532 471.624 81.704 471.944 82.048C472.272 82.392 472.436 82.864 472.436 83.464V88H471.332V83.62C471.332 83.172 471.248 82.856 471.08 82.672C470.912 82.488 470.664 82.396 470.336 82.396C470 82.396 469.704 82.492 469.448 82.684C469.192 82.876 468.952 83.152 468.728 83.512V88H467.624V81.676H468.572L468.668 82.612C468.892 82.276 469.168 82.012 469.496 81.82C469.832 81.628 470.2 81.532 470.6 81.532ZM477.848 87.712C477.432 88 476.96 88.144 476.432 88.144C475.896 88.144 475.476 87.992 475.172 87.688C474.876 87.376 474.728 86.928 474.728 86.344V82.528H473.624V81.676H474.728V80.248L475.832 80.116V81.676H477.332L477.212 82.528H475.832V86.296C475.832 86.624 475.888 86.864 476 87.016C476.12 87.16 476.316 87.232 476.588 87.232C476.836 87.232 477.116 87.148 477.428 86.98L477.848 87.712ZM481.739 81.532C481.963 81.532 482.171 81.556 482.363 81.604L482.159 82.684C481.967 82.636 481.783 82.612 481.607 82.612C481.215 82.612 480.899 82.756 480.659 83.044C480.419 83.332 480.231 83.78 480.095 84.388V88H478.991V81.676H479.939L480.047 82.96C480.215 82.488 480.443 82.132 480.731 81.892C481.019 81.652 481.355 81.532 481.739 81.532ZM487.458 86.524C487.458 86.78 487.502 86.972 487.59 87.1C487.678 87.22 487.81 87.312 487.986 87.376L487.734 88.144C487.406 88.104 487.142 88.012 486.942 87.868C486.742 87.724 486.594 87.5 486.498 87.196C486.074 87.828 485.446 88.144 484.614 88.144C483.99 88.144 483.498 87.968 483.138 87.616C482.778 87.264 482.598 86.804 482.598 86.236C482.598 85.564 482.838 85.048 483.318 84.688C483.806 84.328 484.494 84.148 485.382 84.148H486.354V83.68C486.354 83.232 486.246 82.912 486.03 82.72C485.814 82.528 485.482 82.432 485.034 82.432C484.57 82.432 484.002 82.544 483.33 82.768L483.054 81.964C483.838 81.676 484.566 81.532 485.238 81.532C485.982 81.532 486.538 81.716 486.906 82.084C487.274 82.444 487.458 82.96 487.458 83.632V86.524ZM484.866 87.316C485.498 87.316 485.994 86.988 486.354 86.332V84.88H485.526C484.358 84.88 483.774 85.312 483.774 86.176C483.774 86.552 483.866 86.836 484.05 87.028C484.234 87.22 484.506 87.316 484.866 87.316ZM492.702 81.532C493.278 81.532 493.726 81.704 494.046 82.048C494.374 82.392 494.538 82.864 494.538 83.464V88H493.434V83.62C493.434 83.172 493.35 82.856 493.182 82.672C493.014 82.488 492.766 82.396 492.438 82.396C492.102 82.396 491.806 82.492 491.55 82.684C491.294 82.876 491.054 83.152 490.83 83.512V88H489.726V81.676H490.674L490.77 82.612C490.994 82.276 491.27 82.012 491.598 81.82C491.934 81.628 492.302 81.532 492.702 81.532ZM499.061 81.532C499.437 81.532 499.781 81.588 500.093 81.7C500.405 81.804 500.705 81.976 500.993 82.216L500.465 82.912C500.241 82.752 500.021 82.636 499.805 82.564C499.597 82.484 499.365 82.444 499.109 82.444C498.597 82.444 498.197 82.648 497.909 83.056C497.629 83.464 497.489 84.068 497.489 84.868C497.489 85.668 497.629 86.26 497.909 86.644C498.189 87.02 498.589 87.208 499.109 87.208C499.357 87.208 499.585 87.172 499.793 87.1C500.001 87.02 500.233 86.896 500.489 86.728L500.993 87.448C500.417 87.912 499.773 88.144 499.061 88.144C498.205 88.144 497.529 87.856 497.033 87.28C496.545 86.704 496.301 85.908 496.301 84.892C496.301 84.22 496.413 83.632 496.637 83.128C496.861 82.624 497.177 82.232 497.585 81.952C498.001 81.672 498.493 81.532 499.061 81.532ZM507.029 84.652C507.029 84.836 507.021 85.024 507.005 85.216H502.973C503.021 85.912 503.197 86.424 503.501 86.752C503.805 87.08 504.197 87.244 504.677 87.244C504.981 87.244 505.261 87.2 505.517 87.112C505.773 87.024 506.041 86.884 506.321 86.692L506.801 87.352C506.129 87.88 505.393 88.144 504.593 88.144C503.713 88.144 503.025 87.856 502.529 87.28C502.041 86.704 501.797 85.912 501.797 84.904C501.797 84.248 501.901 83.668 502.109 83.164C502.325 82.652 502.629 82.252 503.021 81.964C503.421 81.676 503.889 81.532 504.425 81.532C505.265 81.532 505.909 81.808 506.357 82.36C506.805 82.912 507.029 83.676 507.029 84.652ZM505.937 84.328C505.937 83.704 505.813 83.228 505.565 82.9C505.317 82.572 504.945 82.408 504.449 82.408C503.545 82.408 503.053 83.072 502.973 84.4H505.937V84.328Z"
              fill="#1B3380"/>
        <mask id="path-16-inside-4_2314_47728" fill="white">
            <path d="M183.916 72H383.916V96H183.916V72Z"/>
        </mask>
        <path d="M183.916 72H383.916V96H183.916V72Z" fill="#EEF1FB"/>
        <path d="M383.916 96V97H384.916V96H383.916ZM382.916 72V96H384.916V72H382.916ZM383.916 95H183.916V97H383.916V95Z"
              fill="black" fill-opacity="0.1" mask="url(#path-16-inside-4_2314_47728)"/>
        <path d="M233.997 79.732L232.317 88H230.853L229.329 81.076L227.793 88H226.365L224.685 79.732H225.801L227.133 87.004L228.729 79.732H229.941L231.573 87.004L232.953 79.732H233.997ZM240.098 84.652C240.098 84.836 240.09 85.024 240.074 85.216H236.042C236.09 85.912 236.266 86.424 236.57 86.752C236.874 87.08 237.266 87.244 237.746 87.244C238.05 87.244 238.33 87.2 238.586 87.112C238.842 87.024 239.11 86.884 239.39 86.692L239.87 87.352C239.198 87.88 238.462 88.144 237.662 88.144C236.782 88.144 236.094 87.856 235.598 87.28C235.11 86.704 234.866 85.912 234.866 84.904C234.866 84.248 234.97 83.668 235.178 83.164C235.394 82.652 235.698 82.252 236.09 81.964C236.49 81.676 236.958 81.532 237.494 81.532C238.334 81.532 238.978 81.808 239.426 82.36C239.874 82.912 240.098 83.676 240.098 84.652ZM239.006 84.328C239.006 83.704 238.882 83.228 238.634 82.9C238.386 82.572 238.014 82.408 237.518 82.408C236.614 82.408 236.122 83.072 236.042 84.4H239.006V84.328ZM244.753 81.532C245.473 81.532 246.045 81.824 246.469 82.408C246.893 82.984 247.105 83.792 247.105 84.832C247.105 85.488 247.005 86.068 246.805 86.572C246.605 87.068 246.317 87.456 245.941 87.736C245.565 88.008 245.125 88.144 244.621 88.144C243.957 88.144 243.397 87.864 242.941 87.304L242.833 88H241.861V79.132L242.965 79V82.468C243.421 81.844 244.017 81.532 244.753 81.532ZM244.357 87.268C244.845 87.268 245.225 87.072 245.497 86.68C245.777 86.28 245.917 85.664 245.917 84.832C245.917 83.976 245.789 83.36 245.533 82.984C245.277 82.6 244.913 82.408 244.441 82.408C243.881 82.408 243.389 82.736 242.965 83.392V86.416C243.133 86.68 243.337 86.888 243.577 87.04C243.825 87.192 244.085 87.268 244.357 87.268ZM250.702 81.532C251.134 81.532 251.522 81.592 251.866 81.712C252.21 81.832 252.538 82.012 252.85 82.252L252.382 82.948C252.094 82.764 251.818 82.628 251.554 82.54C251.298 82.452 251.026 82.408 250.738 82.408C250.378 82.408 250.094 82.484 249.886 82.636C249.678 82.78 249.574 82.98 249.574 83.236C249.574 83.492 249.67 83.692 249.862 83.836C250.062 83.98 250.418 84.12 250.93 84.256C251.634 84.432 252.158 84.672 252.502 84.976C252.854 85.28 253.03 85.696 253.03 86.224C253.03 86.848 252.786 87.324 252.298 87.652C251.818 87.98 251.23 88.144 250.534 88.144C249.574 88.144 248.778 87.868 248.146 87.316L248.734 86.644C249.27 87.052 249.862 87.256 250.51 87.256C250.926 87.256 251.254 87.172 251.494 87.004C251.742 86.828 251.866 86.592 251.866 86.296C251.866 86.08 251.822 85.908 251.734 85.78C251.646 85.644 251.494 85.528 251.278 85.432C251.062 85.328 250.746 85.22 250.33 85.108C249.658 84.932 249.17 84.696 248.866 84.4C248.57 84.104 248.422 83.728 248.422 83.272C248.422 82.944 248.518 82.648 248.71 82.384C248.91 82.112 249.182 81.904 249.526 81.76C249.878 81.608 250.27 81.532 250.702 81.532ZM255.691 81.676V88H254.587V81.676H255.691ZM255.127 78.64C255.359 78.64 255.547 78.712 255.691 78.856C255.835 79 255.907 79.18 255.907 79.396C255.907 79.612 255.835 79.792 255.691 79.936C255.547 80.072 255.359 80.14 255.127 80.14C254.903 80.14 254.719 80.072 254.575 79.936C254.431 79.792 254.359 79.612 254.359 79.396C254.359 79.18 254.431 79 254.575 78.856C254.719 78.712 254.903 78.64 255.127 78.64ZM261.166 87.712C260.75 88 260.278 88.144 259.75 88.144C259.214 88.144 258.794 87.992 258.49 87.688C258.194 87.376 258.046 86.928 258.046 86.344V82.528H256.942V81.676H258.046V80.248L259.15 80.116V81.676H260.65L260.53 82.528H259.15V86.296C259.15 86.624 259.206 86.864 259.318 87.016C259.438 87.16 259.634 87.232 259.906 87.232C260.154 87.232 260.434 87.148 260.746 86.98L261.166 87.712ZM266.91 84.652C266.91 84.836 266.902 85.024 266.886 85.216H262.854C262.902 85.912 263.078 86.424 263.382 86.752C263.686 87.08 264.078 87.244 264.558 87.244C264.862 87.244 265.142 87.2 265.398 87.112C265.654 87.024 265.922 86.884 266.202 86.692L266.682 87.352C266.01 87.88 265.274 88.144 264.474 88.144C263.594 88.144 262.906 87.856 262.41 87.28C261.922 86.704 261.678 85.912 261.678 84.904C261.678 84.248 261.782 83.668 261.99 83.164C262.206 82.652 262.51 82.252 262.902 81.964C263.302 81.676 263.77 81.532 264.306 81.532C265.146 81.532 265.79 81.808 266.238 82.36C266.686 82.912 266.91 83.676 266.91 84.652ZM265.818 84.328C265.818 83.704 265.694 83.228 265.446 82.9C265.198 82.572 264.826 82.408 264.33 82.408C263.426 82.408 262.934 83.072 262.854 84.4H265.818V84.328ZM271.577 78.316L272.513 78.532L269.741 89.248L268.793 89.02L271.577 78.316ZM277.007 79.588C277.559 79.588 278.031 79.668 278.423 79.828C278.815 79.98 279.195 80.22 279.563 80.548L278.939 81.244C278.627 80.996 278.319 80.816 278.015 80.704C277.719 80.584 277.399 80.524 277.055 80.524C276.623 80.524 276.267 80.624 275.987 80.824C275.707 81.024 275.567 81.316 275.567 81.7C275.567 81.94 275.615 82.144 275.711 82.312C275.807 82.472 275.983 82.62 276.239 82.756C276.503 82.892 276.883 83.036 277.379 83.188C277.899 83.348 278.331 83.52 278.675 83.704C279.019 83.888 279.295 84.144 279.503 84.472C279.719 84.792 279.827 85.2 279.827 85.696C279.827 86.176 279.707 86.6 279.467 86.968C279.235 87.336 278.895 87.624 278.447 87.832C278.007 88.04 277.483 88.144 276.875 88.144C275.731 88.144 274.795 87.788 274.067 87.076L274.691 86.38C275.027 86.652 275.367 86.86 275.711 87.004C276.055 87.14 276.439 87.208 276.863 87.208C277.375 87.208 277.799 87.084 278.135 86.836C278.471 86.58 278.639 86.212 278.639 85.732C278.639 85.46 278.587 85.236 278.483 85.06C278.379 84.876 278.199 84.712 277.943 84.568C277.695 84.424 277.331 84.28 276.851 84.136C276.003 83.88 275.383 83.572 274.991 83.212C274.599 82.852 274.403 82.364 274.403 81.748C274.403 81.332 274.511 80.96 274.727 80.632C274.951 80.304 275.259 80.048 275.651 79.864C276.051 79.68 276.503 79.588 277.007 79.588ZM283.823 81.532C284.711 81.532 285.399 81.828 285.887 82.42C286.383 83.012 286.631 83.816 286.631 84.832C286.631 85.488 286.519 86.068 286.295 86.572C286.071 87.068 285.747 87.456 285.323 87.736C284.899 88.008 284.395 88.144 283.811 88.144C282.923 88.144 282.231 87.848 281.735 87.256C281.239 86.664 280.991 85.86 280.991 84.844C280.991 84.188 281.103 83.612 281.327 83.116C281.551 82.612 281.875 82.224 282.299 81.952C282.723 81.672 283.231 81.532 283.823 81.532ZM283.823 82.42C282.727 82.42 282.179 83.228 282.179 84.844C282.179 86.452 282.723 87.256 283.811 87.256C284.899 87.256 285.443 86.448 285.443 84.832C285.443 83.224 284.903 82.42 283.823 82.42ZM290.758 81.532C291.134 81.532 291.478 81.588 291.79 81.7C292.102 81.804 292.402 81.976 292.69 82.216L292.162 82.912C291.938 82.752 291.718 82.636 291.502 82.564C291.294 82.484 291.062 82.444 290.806 82.444C290.294 82.444 289.894 82.648 289.606 83.056C289.326 83.464 289.186 84.068 289.186 84.868C289.186 85.668 289.326 86.26 289.606 86.644C289.886 87.02 290.286 87.208 290.806 87.208C291.054 87.208 291.282 87.172 291.49 87.1C291.698 87.02 291.93 86.896 292.186 86.728L292.69 87.448C292.114 87.912 291.47 88.144 290.758 88.144C289.902 88.144 289.226 87.856 288.73 87.28C288.242 86.704 287.998 85.908 287.998 84.892C287.998 84.22 288.11 83.632 288.334 83.128C288.558 82.624 288.874 82.232 289.282 81.952C289.698 81.672 290.19 81.532 290.758 81.532ZM295.289 81.676V88H294.185V81.676H295.289ZM294.725 78.64C294.957 78.64 295.145 78.712 295.289 78.856C295.433 79 295.505 79.18 295.505 79.396C295.505 79.612 295.433 79.792 295.289 79.936C295.145 80.072 294.957 80.14 294.725 80.14C294.501 80.14 294.317 80.072 294.173 79.936C294.029 79.792 293.957 79.612 293.957 79.396C293.957 79.18 294.029 79 294.173 78.856C294.317 78.712 294.501 78.64 294.725 78.64ZM301.832 86.524C301.832 86.78 301.876 86.972 301.964 87.1C302.052 87.22 302.184 87.312 302.36 87.376L302.108 88.144C301.78 88.104 301.516 88.012 301.316 87.868C301.116 87.724 300.968 87.5 300.872 87.196C300.448 87.828 299.82 88.144 298.988 88.144C298.364 88.144 297.872 87.968 297.512 87.616C297.152 87.264 296.972 86.804 296.972 86.236C296.972 85.564 297.212 85.048 297.692 84.688C298.18 84.328 298.868 84.148 299.756 84.148H300.728V83.68C300.728 83.232 300.62 82.912 300.404 82.72C300.188 82.528 299.856 82.432 299.408 82.432C298.944 82.432 298.376 82.544 297.704 82.768L297.428 81.964C298.212 81.676 298.94 81.532 299.612 81.532C300.356 81.532 300.912 81.716 301.28 82.084C301.648 82.444 301.832 82.96 301.832 83.632V86.524ZM299.24 87.316C299.872 87.316 300.368 86.988 300.728 86.332V84.88H299.9C298.732 84.88 298.148 85.312 298.148 86.176C298.148 86.552 298.24 86.836 298.424 87.028C298.608 87.22 298.88 87.316 299.24 87.316ZM305.242 88.144C304.834 88.144 304.51 88.024 304.27 87.784C304.038 87.536 303.922 87.192 303.922 86.752V79.132L305.026 79V86.728C305.026 86.904 305.054 87.032 305.11 87.112C305.174 87.192 305.278 87.232 305.422 87.232C305.574 87.232 305.71 87.208 305.83 87.16L306.118 87.928C305.854 88.072 305.562 88.144 305.242 88.144ZM317.021 81.532C317.541 81.532 317.957 81.708 318.269 82.06C318.581 82.404 318.737 82.872 318.737 83.464V88H317.633V83.62C317.633 82.804 317.337 82.396 316.745 82.396C316.433 82.396 316.169 82.488 315.953 82.672C315.737 82.848 315.505 83.128 315.257 83.512V88H314.153V83.62C314.153 82.804 313.857 82.396 313.265 82.396C312.945 82.396 312.677 82.488 312.461 82.672C312.245 82.856 312.017 83.136 311.777 83.512V88H310.673V81.676H311.621L311.717 82.6C312.189 81.888 312.797 81.532 313.541 81.532C313.933 81.532 314.265 81.632 314.537 81.832C314.817 82.032 315.017 82.312 315.137 82.672C315.385 82.304 315.657 82.024 315.953 81.832C316.257 81.632 316.613 81.532 317.021 81.532ZM325.738 84.652C325.738 84.836 325.73 85.024 325.714 85.216H321.682C321.73 85.912 321.906 86.424 322.21 86.752C322.514 87.08 322.906 87.244 323.386 87.244C323.69 87.244 323.97 87.2 324.226 87.112C324.482 87.024 324.75 86.884 325.03 86.692L325.51 87.352C324.838 87.88 324.102 88.144 323.302 88.144C322.422 88.144 321.734 87.856 321.238 87.28C320.75 86.704 320.506 85.912 320.506 84.904C320.506 84.248 320.61 83.668 320.818 83.164C321.034 82.652 321.338 82.252 321.73 81.964C322.13 81.676 322.598 81.532 323.134 81.532C323.974 81.532 324.618 81.808 325.066 82.36C325.514 82.912 325.738 83.676 325.738 84.652ZM324.646 84.328C324.646 83.704 324.522 83.228 324.274 82.9C324.026 82.572 323.654 82.408 323.158 82.408C322.254 82.408 321.762 83.072 321.682 84.4H324.646V84.328ZM332.397 79.132V88H331.425L331.317 87.124C331.109 87.444 330.849 87.696 330.537 87.88C330.225 88.056 329.877 88.144 329.493 88.144C328.741 88.144 328.153 87.848 327.729 87.256C327.313 86.664 327.105 85.868 327.105 84.868C327.105 84.22 327.205 83.644 327.405 83.14C327.605 82.636 327.893 82.244 328.269 81.964C328.645 81.676 329.085 81.532 329.589 81.532C330.237 81.532 330.805 81.792 331.293 82.312V79L332.397 79.132ZM329.733 87.268C330.069 87.268 330.357 87.192 330.597 87.04C330.837 86.88 331.069 86.644 331.293 86.332V83.236C331.085 82.964 330.861 82.76 330.621 82.624C330.389 82.48 330.125 82.408 329.829 82.408C329.341 82.408 328.961 82.612 328.689 83.02C328.425 83.428 328.293 84.036 328.293 84.844C328.293 85.66 328.417 86.268 328.665 86.668C328.913 87.068 329.269 87.268 329.733 87.268ZM335.777 81.676V88H334.673V81.676H335.777ZM335.213 78.64C335.445 78.64 335.633 78.712 335.777 78.856C335.921 79 335.993 79.18 335.993 79.396C335.993 79.612 335.921 79.792 335.777 79.936C335.633 80.072 335.445 80.14 335.213 80.14C334.989 80.14 334.805 80.072 334.661 79.936C334.517 79.792 334.445 79.612 334.445 79.396C334.445 79.18 334.517 79 334.661 78.856C334.805 78.712 334.989 78.64 335.213 78.64ZM342.32 86.524C342.32 86.78 342.364 86.972 342.452 87.1C342.54 87.22 342.672 87.312 342.848 87.376L342.596 88.144C342.268 88.104 342.004 88.012 341.804 87.868C341.604 87.724 341.456 87.5 341.36 87.196C340.936 87.828 340.308 88.144 339.476 88.144C338.852 88.144 338.36 87.968 338 87.616C337.64 87.264 337.46 86.804 337.46 86.236C337.46 85.564 337.7 85.048 338.18 84.688C338.668 84.328 339.356 84.148 340.244 84.148H341.216V83.68C341.216 83.232 341.108 82.912 340.892 82.72C340.676 82.528 340.344 82.432 339.896 82.432C339.432 82.432 338.864 82.544 338.192 82.768L337.916 81.964C338.7 81.676 339.428 81.532 340.1 81.532C340.844 81.532 341.4 81.716 341.768 82.084C342.136 82.444 342.32 82.96 342.32 83.632V86.524ZM339.728 87.316C340.36 87.316 340.856 86.988 341.216 86.332V84.88H340.388C339.22 84.88 338.636 85.312 338.636 86.176C338.636 86.552 338.728 86.836 338.912 87.028C339.096 87.22 339.368 87.316 339.728 87.316Z"
              fill="#1B3380"/>
        <mask id="path-19-inside-5_2314_47728" fill="white">
            <path d="M15.9159 72H183.916V96H15.9159V72Z"/>
        </mask>
        <path d="M15.9159 72H183.916V96H15.9159V72Z" fill="#F5F5F5"/>
        <path d="M183.916 96V97H184.916V96H183.916ZM182.916 72V96H184.916V72H182.916ZM183.916 95H15.9159V97H183.916V95Z"
              fill="black" fill-opacity="0.1" mask="url(#path-19-inside-5_2314_47728)"/>
        <g clip-path="url(#clip4_2314_47728)">
            <mask id="path-21-inside-6_2314_47728" fill="white">
                <path d="M183.916 48H383.916V72H183.916V48Z"/>
            </mask>
            <path d="M183.916 48H383.916V72H183.916V48Z" fill="#D5DDF6"/>
            <path d="M260.596 55.708C261.884 55.708 262.912 56 263.68 56.584C264.456 57.168 264.844 58.244 264.844 59.812C264.844 61.348 264.464 62.432 263.704 63.064C262.944 63.688 261.98 64 260.812 64H258.556V55.708H260.596ZM260.14 56.896V62.812H260.92C261.624 62.812 262.176 62.596 262.576 62.164C262.976 61.724 263.176 60.94 263.176 59.812C263.176 59.028 263.072 58.424 262.864 58C262.664 57.568 262.396 57.276 262.06 57.124C261.732 56.972 261.336 56.896 260.872 56.896H260.14ZM267.825 57.652V64H266.289V57.652H267.825ZM267.045 54.436C267.333 54.436 267.565 54.528 267.741 54.712C267.925 54.888 268.017 55.108 268.017 55.372C268.017 55.636 267.925 55.856 267.741 56.032C267.565 56.208 267.333 56.296 267.045 56.296C266.765 56.296 266.533 56.208 266.349 56.032C266.173 55.856 266.085 55.636 266.085 55.372C266.085 55.108 266.173 54.888 266.349 54.712C266.533 54.528 266.765 54.436 267.045 54.436ZM271.68 57.472C272.536 57.472 273.288 57.724 273.936 58.228L273.336 59.128C272.792 58.784 272.26 58.612 271.74 58.612C271.436 58.612 271.2 58.672 271.032 58.792C270.864 58.904 270.78 59.056 270.78 59.248C270.78 59.392 270.816 59.512 270.888 59.608C270.96 59.704 271.088 59.796 271.272 59.884C271.464 59.964 271.744 60.056 272.112 60.16C272.8 60.344 273.308 60.588 273.636 60.892C273.972 61.196 274.14 61.62 274.14 62.164C274.14 62.796 273.884 63.292 273.372 63.652C272.86 64.004 272.224 64.18 271.464 64.18C270.944 64.18 270.468 64.1 270.036 63.94C269.612 63.78 269.244 63.56 268.932 63.28L269.7 62.416C270.252 62.832 270.828 63.04 271.428 63.04C271.772 63.04 272.044 62.972 272.244 62.836C272.452 62.7 272.556 62.512 272.556 62.272C272.556 62.088 272.516 61.944 272.436 61.84C272.364 61.728 272.228 61.632 272.028 61.552C271.836 61.464 271.532 61.36 271.116 61.24C270.468 61.064 269.992 60.82 269.688 60.508C269.384 60.188 269.232 59.792 269.232 59.32C269.232 58.968 269.332 58.652 269.532 58.372C269.74 58.092 270.028 57.872 270.396 57.712C270.772 57.552 271.2 57.472 271.68 57.472ZM277.939 57.472C278.355 57.472 278.727 57.532 279.055 57.652C279.391 57.772 279.707 57.96 280.003 58.216L279.319 59.14C279.103 58.98 278.895 58.864 278.695 58.792C278.495 58.72 278.275 58.684 278.035 58.684C277.083 58.684 276.607 59.408 276.607 60.856C276.607 61.592 276.731 62.124 276.979 62.452C277.227 62.772 277.579 62.932 278.035 62.932C278.259 62.932 278.463 62.896 278.647 62.824C278.839 62.752 279.063 62.636 279.319 62.476L280.003 63.448C279.403 63.936 278.719 64.18 277.951 64.18C277.343 64.18 276.815 64.048 276.367 63.784C275.919 63.512 275.575 63.128 275.335 62.632C275.095 62.136 274.975 61.552 274.975 60.88C274.975 60.208 275.095 59.616 275.335 59.104C275.575 58.584 275.919 58.184 276.367 57.904C276.815 57.616 277.339 57.472 277.939 57.472ZM283.471 57.472C284.407 57.472 285.135 57.772 285.655 58.372C286.183 58.964 286.447 59.78 286.447 60.82C286.447 61.484 286.327 62.072 286.087 62.584C285.847 63.088 285.503 63.48 285.055 63.76C284.607 64.04 284.075 64.18 283.459 64.18C282.523 64.18 281.791 63.884 281.263 63.292C280.735 62.692 280.471 61.868 280.471 60.82C280.471 60.156 280.591 59.572 280.831 59.068C281.071 58.564 281.415 58.172 281.863 57.892C282.319 57.612 282.855 57.472 283.471 57.472ZM283.471 58.636C282.551 58.636 282.091 59.364 282.091 60.82C282.091 61.572 282.203 62.128 282.427 62.488C282.659 62.84 283.003 63.016 283.459 63.016C283.915 63.016 284.255 62.836 284.479 62.476C284.711 62.116 284.827 61.564 284.827 60.82C284.827 60.076 284.711 59.528 284.479 59.176C284.255 58.816 283.919 58.636 283.471 58.636ZM292.916 57.652L290.852 64H289.016L286.916 57.652H288.584L289.94 62.764L291.332 57.652H292.916ZM299.001 60.676C299.001 60.756 298.989 60.964 298.965 61.3H294.981C295.029 61.916 295.189 62.356 295.461 62.62C295.733 62.884 296.093 63.016 296.541 63.016C296.821 63.016 297.085 62.972 297.333 62.884C297.581 62.788 297.845 62.644 298.125 62.452L298.761 63.328C298.057 63.896 297.273 64.18 296.409 64.18C295.441 64.18 294.693 63.884 294.165 63.292C293.645 62.7 293.385 61.892 293.385 60.868C293.385 60.22 293.497 59.64 293.721 59.128C293.945 58.608 294.269 58.204 294.693 57.916C295.117 57.62 295.621 57.472 296.205 57.472C297.093 57.472 297.781 57.756 298.269 58.324C298.757 58.884 299.001 59.668 299.001 60.676ZM297.477 60.232C297.477 59.12 297.065 58.564 296.241 58.564C295.865 58.564 295.569 58.704 295.353 58.984C295.145 59.256 295.021 59.696 294.981 60.304H297.477V60.232ZM303.511 57.484C303.743 57.484 303.955 57.512 304.147 57.568L303.883 59.056C303.691 59.008 303.503 58.984 303.319 58.984C302.943 58.984 302.647 59.12 302.431 59.392C302.215 59.656 302.043 60.064 301.915 60.616V64H300.379V57.652H301.711L301.855 58.9C302.007 58.444 302.227 58.096 302.515 57.856C302.803 57.608 303.135 57.484 303.511 57.484ZM308.174 64.024C307.918 64.808 307.53 65.416 307.01 65.848C306.49 66.288 305.778 66.544 304.874 66.616L304.718 65.5C305.134 65.436 305.466 65.344 305.714 65.224C305.97 65.112 306.174 64.96 306.326 64.768C306.478 64.576 306.618 64.32 306.746 64H306.218L304.202 57.652H305.834L307.214 62.98L308.654 57.652H310.238L308.174 64.024Z"
                  fill="#1B3380"/>
        </g>
        <path d="M383.916 72V73H384.916V72H383.916ZM382.916 48V72H384.916V48H382.916ZM383.916 71H183.916V73H383.916V71Z"
              fill="black" fill-opacity="0.1" mask="url(#path-21-inside-6_2314_47728)"/>
        <g clip-path="url(#clip5_2314_47728)">
            <mask id="path-24-inside-7_2314_47728" fill="white">
                <path d="M383.916 48H583.916V72H383.916V48Z"/>
            </mask>
            <path d="M383.916 48H583.916V72H383.916V48Z" fill="#D5DDF6"/>
            <path d="M460.05 64V55.708H464.742L464.574 56.884H461.634V59.368H464.19V60.544H461.634V64H460.05ZM467.022 57.652V64H465.486V57.652H467.022ZM466.242 54.436C466.53 54.436 466.762 54.528 466.938 54.712C467.122 54.888 467.214 55.108 467.214 55.372C467.214 55.636 467.122 55.856 466.938 56.032C466.762 56.208 466.53 56.296 466.242 56.296C465.962 56.296 465.73 56.208 465.546 56.032C465.37 55.856 465.282 55.636 465.282 55.372C465.282 55.108 465.37 54.888 465.546 54.712C465.73 54.528 465.962 54.436 466.242 54.436ZM472.005 57.484C472.237 57.484 472.449 57.512 472.641 57.568L472.377 59.056C472.185 59.008 471.997 58.984 471.813 58.984C471.437 58.984 471.141 59.12 470.925 59.392C470.709 59.656 470.537 60.064 470.409 60.616V64H468.873V57.652H470.205L470.349 58.9C470.501 58.444 470.721 58.096 471.009 57.856C471.297 57.608 471.629 57.484 472.005 57.484ZM475.447 57.472C476.303 57.472 477.055 57.724 477.703 58.228L477.103 59.128C476.559 58.784 476.027 58.612 475.507 58.612C475.203 58.612 474.967 58.672 474.799 58.792C474.631 58.904 474.547 59.056 474.547 59.248C474.547 59.392 474.583 59.512 474.655 59.608C474.727 59.704 474.855 59.796 475.039 59.884C475.231 59.964 475.511 60.056 475.879 60.16C476.567 60.344 477.075 60.588 477.403 60.892C477.739 61.196 477.907 61.62 477.907 62.164C477.907 62.796 477.651 63.292 477.139 63.652C476.627 64.004 475.991 64.18 475.231 64.18C474.711 64.18 474.235 64.1 473.803 63.94C473.379 63.78 473.011 63.56 472.699 63.28L473.467 62.416C474.019 62.832 474.595 63.04 475.195 63.04C475.539 63.04 475.811 62.972 476.011 62.836C476.219 62.7 476.323 62.512 476.323 62.272C476.323 62.088 476.283 61.944 476.203 61.84C476.131 61.728 475.995 61.632 475.795 61.552C475.603 61.464 475.299 61.36 474.883 61.24C474.235 61.064 473.759 60.82 473.455 60.508C473.151 60.188 472.999 59.792 472.999 59.32C472.999 58.968 473.099 58.652 473.299 58.372C473.507 58.092 473.795 57.872 474.163 57.712C474.539 57.552 474.967 57.472 475.447 57.472ZM482.786 63.7C482.562 63.86 482.31 63.98 482.03 64.06C481.758 64.14 481.478 64.18 481.19 64.18C480.566 64.172 480.09 63.996 479.762 63.652C479.442 63.3 479.282 62.784 479.282 62.104V58.756H478.286V57.652H479.282V56.248L480.818 56.068V57.652H482.294L482.138 58.756H480.818V62.068C480.818 62.38 480.87 62.604 480.974 62.74C481.086 62.876 481.258 62.944 481.49 62.944C481.722 62.944 481.974 62.868 482.246 62.716L482.786 63.7ZM491.75 57.652L489.686 64H487.85L485.75 57.652H487.418L488.774 62.764L490.166 57.652H491.75ZM494.233 57.652V64H492.697V57.652H494.233ZM493.453 54.436C493.741 54.436 493.973 54.528 494.149 54.712C494.333 54.888 494.425 55.108 494.425 55.372C494.425 55.636 494.333 55.856 494.149 56.032C493.973 56.208 493.741 56.296 493.453 56.296C493.173 56.296 492.941 56.208 492.757 56.032C492.581 55.856 492.493 55.636 492.493 55.372C492.493 55.108 492.581 54.888 492.757 54.712C492.941 54.528 493.173 54.436 493.453 54.436ZM498.088 57.472C498.944 57.472 499.696 57.724 500.344 58.228L499.744 59.128C499.2 58.784 498.668 58.612 498.148 58.612C497.844 58.612 497.608 58.672 497.44 58.792C497.272 58.904 497.188 59.056 497.188 59.248C497.188 59.392 497.224 59.512 497.296 59.608C497.368 59.704 497.496 59.796 497.68 59.884C497.872 59.964 498.152 60.056 498.52 60.16C499.208 60.344 499.716 60.588 500.044 60.892C500.38 61.196 500.548 61.62 500.548 62.164C500.548 62.796 500.292 63.292 499.78 63.652C499.268 64.004 498.632 64.18 497.872 64.18C497.352 64.18 496.876 64.1 496.444 63.94C496.02 63.78 495.652 63.56 495.34 63.28L496.108 62.416C496.66 62.832 497.236 63.04 497.836 63.04C498.18 63.04 498.452 62.972 498.652 62.836C498.86 62.7 498.964 62.512 498.964 62.272C498.964 62.088 498.924 61.944 498.844 61.84C498.772 61.728 498.636 61.632 498.436 61.552C498.244 61.464 497.94 61.36 497.524 61.24C496.876 61.064 496.4 60.82 496.096 60.508C495.792 60.188 495.64 59.792 495.64 59.32C495.64 58.968 495.74 58.652 495.94 58.372C496.148 58.092 496.436 57.872 496.804 57.712C497.18 57.552 497.608 57.472 498.088 57.472ZM503.327 57.652V64H501.791V57.652H503.327ZM502.547 54.436C502.835 54.436 503.067 54.528 503.243 54.712C503.427 54.888 503.519 55.108 503.519 55.372C503.519 55.636 503.427 55.856 503.243 56.032C503.067 56.208 502.835 56.296 502.547 56.296C502.267 56.296 502.035 56.208 501.851 56.032C501.675 55.856 501.587 55.636 501.587 55.372C501.587 55.108 501.675 54.888 501.851 54.712C502.035 54.528 502.267 54.436 502.547 54.436ZM508.814 63.7C508.59 63.86 508.338 63.98 508.058 64.06C507.786 64.14 507.506 64.18 507.218 64.18C506.594 64.172 506.118 63.996 505.79 63.652C505.47 63.3 505.31 62.784 505.31 62.104V58.756H504.314V57.652H505.31V56.248L506.846 56.068V57.652H508.322L508.166 58.756H506.846V62.068C506.846 62.38 506.898 62.604 507.002 62.74C507.114 62.876 507.286 62.944 507.518 62.944C507.75 62.944 508.002 62.868 508.274 62.716L508.814 63.7Z"
                  fill="#1B3380"/>
        </g>
        <path d="M583.916 72V73H584.916V72H583.916ZM582.916 48V72H584.916V48H582.916ZM583.916 71H383.916V73H583.916V71Z"
              fill="black" fill-opacity="0.1" mask="url(#path-24-inside-7_2314_47728)"/>
        <g clip-path="url(#clip6_2314_47728)">
            <mask id="path-27-inside-8_2314_47728" fill="white">
                <path d="M583.916 48H783.916V72H583.916V48Z"/>
            </mask>
            <path d="M583.916 48H783.916V72H583.916V48Z" fill="#D5DDF6"/>
            <path d="M659.776 55.708L659.608 56.884H656.548V59.2H659.212V60.376H656.548V62.812H659.824V64H654.964V55.708H659.776ZM664.267 60.604L666.391 64H664.615L663.307 61.48L662.011 64H660.319L662.431 60.652L660.535 57.652H662.287L663.367 59.812L664.435 57.652H666.103L664.267 60.604ZM670.567 57.472C671.367 57.472 671.959 57.764 672.343 58.348C672.727 58.932 672.919 59.752 672.919 60.808C672.919 61.464 672.819 62.048 672.619 62.56C672.427 63.064 672.139 63.46 671.755 63.748C671.379 64.036 670.931 64.18 670.411 64.18C669.739 64.18 669.207 63.948 668.815 63.484V66.448L667.279 66.616V57.652H668.623L668.707 58.432C668.955 58.112 669.239 57.872 669.559 57.712C669.879 57.552 670.215 57.472 670.567 57.472ZM669.979 63.004C670.867 63.004 671.311 62.276 671.311 60.82C671.311 60.044 671.211 59.484 671.011 59.14C670.811 58.796 670.511 58.624 670.111 58.624C669.855 58.624 669.615 58.704 669.391 58.864C669.167 59.016 668.975 59.224 668.815 59.488V62.344C669.111 62.784 669.499 63.004 669.979 63.004ZM679.636 60.676C679.636 60.756 679.624 60.964 679.6 61.3H675.616C675.664 61.916 675.824 62.356 676.096 62.62C676.368 62.884 676.728 63.016 677.176 63.016C677.456 63.016 677.72 62.972 677.968 62.884C678.216 62.788 678.48 62.644 678.76 62.452L679.396 63.328C678.692 63.896 677.908 64.18 677.044 64.18C676.076 64.18 675.328 63.884 674.8 63.292C674.28 62.7 674.02 61.892 674.02 60.868C674.02 60.22 674.132 59.64 674.356 59.128C674.58 58.608 674.904 58.204 675.328 57.916C675.752 57.62 676.256 57.472 676.84 57.472C677.728 57.472 678.416 57.756 678.904 58.324C679.392 58.884 679.636 59.668 679.636 60.676ZM678.112 60.232C678.112 59.12 677.7 58.564 676.876 58.564C676.5 58.564 676.204 58.704 675.988 58.984C675.78 59.256 675.656 59.696 675.616 60.304H678.112V60.232ZM684.146 57.484C684.378 57.484 684.59 57.512 684.782 57.568L684.518 59.056C684.326 59.008 684.138 58.984 683.954 58.984C683.578 58.984 683.282 59.12 683.066 59.392C682.85 59.656 682.678 60.064 682.55 60.616V64H681.014V57.652H682.346L682.49 58.9C682.642 58.444 682.862 58.096 683.15 57.856C683.438 57.608 683.77 57.484 684.146 57.484ZM687.272 57.652V64H685.736V57.652H687.272ZM686.492 54.436C686.78 54.436 687.012 54.528 687.188 54.712C687.372 54.888 687.464 55.108 687.464 55.372C687.464 55.636 687.372 55.856 687.188 56.032C687.012 56.208 686.78 56.296 686.492 56.296C686.212 56.296 685.98 56.208 685.796 56.032C685.62 55.856 685.532 55.636 685.532 55.372C685.532 55.108 685.62 54.888 685.796 54.712C685.98 54.528 686.212 54.436 686.492 54.436ZM694.331 60.676C694.331 60.756 694.319 60.964 694.295 61.3H690.311C690.359 61.916 690.519 62.356 690.791 62.62C691.063 62.884 691.423 63.016 691.871 63.016C692.151 63.016 692.415 62.972 692.663 62.884C692.911 62.788 693.175 62.644 693.455 62.452L694.091 63.328C693.387 63.896 692.603 64.18 691.739 64.18C690.771 64.18 690.023 63.884 689.495 63.292C688.975 62.7 688.715 61.892 688.715 60.868C688.715 60.22 688.827 59.64 689.051 59.128C689.275 58.608 689.599 58.204 690.023 57.916C690.447 57.62 690.951 57.472 691.535 57.472C692.423 57.472 693.111 57.756 693.599 58.324C694.087 58.884 694.331 59.668 694.331 60.676ZM692.807 60.232C692.807 59.12 692.395 58.564 691.571 58.564C691.195 58.564 690.899 58.704 690.683 58.984C690.475 59.256 690.351 59.696 690.311 60.304H692.807V60.232ZM699.093 57.472C699.661 57.472 700.101 57.644 700.413 57.988C700.733 58.324 700.893 58.796 700.893 59.404V64H699.357V59.644C699.357 59.268 699.289 59.004 699.153 58.852C699.025 58.7 698.833 58.624 698.577 58.624C698.313 58.624 698.073 58.708 697.857 58.876C697.649 59.036 697.445 59.272 697.245 59.584V64H695.709V57.652H697.041L697.161 58.48C697.681 57.808 698.325 57.472 699.093 57.472ZM705.238 57.472C705.654 57.472 706.026 57.532 706.354 57.652C706.69 57.772 707.006 57.96 707.302 58.216L706.618 59.14C706.402 58.98 706.194 58.864 705.994 58.792C705.794 58.72 705.574 58.684 705.334 58.684C704.382 58.684 703.906 59.408 703.906 60.856C703.906 61.592 704.03 62.124 704.278 62.452C704.526 62.772 704.878 62.932 705.334 62.932C705.558 62.932 705.762 62.896 705.946 62.824C706.138 62.752 706.362 62.636 706.618 62.476L707.302 63.448C706.702 63.936 706.018 64.18 705.25 64.18C704.642 64.18 704.114 64.048 703.666 63.784C703.218 63.512 702.874 63.128 702.634 62.632C702.394 62.136 702.274 61.552 702.274 60.88C702.274 60.208 702.394 59.616 702.634 59.104C702.874 58.584 703.218 58.184 703.666 57.904C704.114 57.616 704.638 57.472 705.238 57.472ZM713.386 60.676C713.386 60.756 713.374 60.964 713.35 61.3H709.366C709.414 61.916 709.574 62.356 709.846 62.62C710.118 62.884 710.478 63.016 710.926 63.016C711.206 63.016 711.47 62.972 711.718 62.884C711.966 62.788 712.23 62.644 712.51 62.452L713.146 63.328C712.442 63.896 711.658 64.18 710.794 64.18C709.826 64.18 709.078 63.884 708.55 63.292C708.03 62.7 707.77 61.892 707.77 60.868C707.77 60.22 707.882 59.64 708.106 59.128C708.33 58.608 708.654 58.204 709.078 57.916C709.502 57.62 710.006 57.472 710.59 57.472C711.478 57.472 712.166 57.756 712.654 58.324C713.142 58.884 713.386 59.668 713.386 60.676ZM711.862 60.232C711.862 59.12 711.45 58.564 710.626 58.564C710.25 58.564 709.954 58.704 709.738 58.984C709.53 59.256 709.406 59.696 709.366 60.304H711.862V60.232Z"
                  fill="#1B3380"/>
        </g>
        <path d="M783.916 71H583.916V73H783.916V71Z" fill="black" fill-opacity="0.1"
              mask="url(#path-27-inside-8_2314_47728)"/>
        <mask id="path-30-inside-9_2314_47728" fill="white">
            <path d="M15.9159 48H183.916V72H15.9159V48Z"/>
        </mask>
        <path d="M15.9159 48H183.916V72H15.9159V48Z" fill="#F5F5F5"/>
        <path d="M183.916 72V73H184.916V72H183.916ZM182.916 48V72H184.916V48H182.916ZM183.916 71H15.9159V73H183.916V71Z"
              fill="black" fill-opacity="0.1" mask="url(#path-30-inside-9_2314_47728)"/>
    </g>
    <defs>
        <clipPath id="clip0_2314_47728">
            <rect width="800" height="152" fill="white" transform="translate(-0.000244141)"/>
        </clipPath>
        <clipPath id="clip1_2314_47728">
            <rect width="800" height="32" fill="white" transform="translate(-0.000244141)"/>
        </clipPath>
        <clipPath id="clip2_2314_47728">
            <rect width="16" height="16" fill="white" transform="translate(7.99976 8)"/>
        </clipPath>
        <clipPath id="clip3_2314_47728">
            <path d="M583.916 72H783.916V96H583.916V72Z" fill="white"/>
        </clipPath>
        <clipPath id="clip4_2314_47728">
            <path d="M183.916 48H383.916V72H183.916V48Z" fill="white"/>
        </clipPath>
        <clipPath id="clip5_2314_47728">
            <path d="M383.916 48H583.916V72H383.916V48Z" fill="white"/>
        </clipPath>
        <clipPath id="clip6_2314_47728">
            <path d="M583.916 48H783.916V72H583.916V48Z" fill="white"/>
        </clipPath>
    </defs>
</svg>