<svg width="16" height="16" viewBox="0 0 16 16" fill="#545E6B" xmlns="http://www.w3.org/2000/svg">
    <path d="M2.5 11.8857C2.5 12.3907 2.89399 12.8 3.38 12.8C3.86601 12.8 4.26 12.3907 4.26 11.8857V5.48571C4.26 4.98077 3.86601 4.57143 3.38 4.57143C2.89399 4.57143 2.5 4.98077 2.5 5.48571V11.8857Z"
    />
    <path d="M8.66 11.8857C8.66 12.3907 9.05399 12.8 9.54 12.8C10.026 12.8 10.42 12.3907 10.42 11.8857V6.4C10.42 5.89505 10.026 5.48571 9.54 5.48571C9.05399 5.48571 8.66 5.89505 8.66 6.4V11.8857Z"
    />
    <path d="M5.58 10.0571C5.58 10.5621 5.97399 10.9714 6.46 10.9714C6.94601 10.9714 7.34 10.5621 7.34 10.0571V6.4C7.34 5.89505 6.94601 5.48571 6.46 5.48571C5.97399 5.48571 5.58 5.89505 5.58 6.4V10.0571Z"
    />
    <path d="M11.74 10.9714C11.74 11.4764 12.134 11.8857 12.62 11.8857C13.106 11.8857 13.5 11.4764 13.5 10.9714V5.48571C13.5 4.98077 13.106 4.57143 12.62 4.57143C12.134 4.57143 11.74 4.98077 11.74 5.48571V10.9714Z"
    />
    <path fill-rule="evenodd" clip-rule="evenodd"
          d="M5.89524 0.434974C6.56253 0.147804 7.27773 0 8 0C8.72227 0 9.43747 0.147804 10.1048 0.434974C10.772 0.722144 11.3784 1.14305 11.8891 1.67368C12.3998 2.2043 12.8049 2.83423 13.0813 3.52752C13.3577 4.22081 13.5 4.96387 13.5 5.71429C13.5 6.21923 13.106 6.62857 12.62 6.62857C12.134 6.62857 11.74 6.21923 11.74 5.71429C11.74 5.20401 11.6433 4.69872 11.4553 4.22729C11.2674 3.75585 10.9919 3.32749 10.6446 2.96667C10.2973 2.60585 9.88499 2.31963 9.43124 2.12435C8.97748 1.92908 8.49114 1.82857 8 1.82857C7.50886 1.82857 7.02252 1.92908 6.56876 2.12435C6.11501 2.31963 5.70271 2.60585 5.35542 2.96667C5.00813 3.32749 4.73264 3.75585 4.54469 4.22729C4.35674 4.69872 4.26 5.20401 4.26 5.71429C4.26 6.21923 3.86601 6.62857 3.38 6.62857C2.89399 6.62857 2.5 6.21923 2.5 5.71429C2.5 4.96388 2.64226 4.22081 2.91866 3.52752C3.19506 2.83423 3.60019 2.2043 4.11091 1.67368C4.62163 1.14306 5.22795 0.722144 5.89524 0.434974Z"
    />
    <path fill-rule="evenodd" clip-rule="evenodd"
          d="M4.94457 15.6868C5.42502 15.8936 5.93997 16 6.46 16C6.98003 16 7.49498 15.8936 7.97543 15.6868C8.45588 15.4801 8.89242 15.177 9.26014 14.795C9.62786 14.4129 9.91955 13.9594 10.1186 13.4602C10.3176 12.961 10.42 12.426 10.42 11.8857C10.42 11.3808 10.026 10.9714 9.54 10.9714C9.05399 10.9714 8.66 11.3808 8.66 11.8857C8.66 12.1859 8.6031 12.4831 8.49253 12.7604C8.38197 13.0377 8.21992 13.2897 8.01564 13.502C7.81135 13.7142 7.56882 13.8826 7.3019 13.9974C7.03499 14.1123 6.74891 14.1714 6.46 14.1714C6.17109 14.1714 5.88501 14.1123 5.6181 13.9974C5.35118 13.8826 5.10865 13.7142 4.90437 13.502C4.70008 13.2897 4.53803 13.0377 4.42747 12.7604C4.3169 12.4831 4.26 12.1859 4.26 11.8857C4.26 11.3808 3.86601 10.9714 3.38 10.9714C2.89399 10.9714 2.5 11.3808 2.5 11.8857C2.5 12.426 2.60243 12.961 2.80144 13.4602C3.00045 13.9594 3.29214 14.4129 3.65986 14.795M4.94457 15.6868C4.46412 15.4801 4.02758 15.177 3.65986 14.795L4.94457 15.6868Z"
    />
    <path fill-rule="evenodd" clip-rule="evenodd"
          d="M7.03414 3.88425C7.33599 3.73579 7.6646 3.65714 8 3.65714C8.3354 3.65714 8.66401 3.73579 8.96586 3.88425C9.26721 4.03247 9.53286 4.24567 9.75121 4.50494C9.96938 4.76399 10.1372 5.06517 10.2501 5.3887C10.363 5.7122 10.42 6.05554 10.42 6.4C10.42 6.90495 10.026 7.31429 9.54 7.31429C9.05399 7.31429 8.66 6.90495 8.66 6.4C8.66 6.2642 8.63737 6.13197 8.59544 6.01178C8.55351 5.8916 8.49451 5.78962 8.42668 5.70907C8.35903 5.62874 8.28513 5.57256 8.21281 5.53699C8.14098 5.50166 8.06907 5.48571 8 5.48571C7.93093 5.48571 7.85902 5.50166 7.78719 5.53699C7.71487 5.57256 7.64097 5.62874 7.57332 5.70907C7.50549 5.78962 7.44649 5.8916 7.40456 6.01178C7.36263 6.13197 7.34 6.2642 7.34 6.4C7.34 6.90495 6.94601 7.31429 6.46 7.31429C5.97399 7.31429 5.58 6.90495 5.58 6.4C5.58 6.05554 5.63703 5.7122 5.74989 5.3887C5.86275 5.06517 6.03062 4.76399 6.24879 4.50494C6.46714 4.24567 6.73279 4.03247 7.03414 3.88425Z"
    />
</svg>